<svg width="132" height="131" viewBox="0 0 132 131" fill="none" xmlns="http://www.w3.org/2000/svg">
<path d="M66 55C61.6239 55 57.4271 53.2616 54.3327 50.1673C51.2384 47.0729 49.5 42.8761 49.5 38.5C49.5 34.1239 51.2384 29.9271 54.3327 26.8327C57.4271 23.7384 61.6239 22 66 22C70.3761 22 74.5729 23.7384 77.6673 26.8327C80.7616 29.9271 82.5 34.1239 82.5 38.5C82.5 42.8761 80.7616 47.0729 77.6673 50.1673C74.5729 53.2616 70.3761 55 66 55ZM49.324 83.8695C50.455 80.336 52.6794 77.2531 55.6761 75.0657C58.6729 72.8784 62.2871 71.6997 65.9973 71.6997C69.7074 71.6997 73.3216 72.8784 76.3184 75.0657C79.3151 77.2531 81.5395 80.336 82.6705 83.8695C83.0352 85.283 83.9464 86.4937 85.2038 87.2353C86.4611 87.9769 87.9615 88.1887 89.375 87.824C90.7885 87.4593 91.9992 86.5481 92.7408 85.2908C93.4824 84.0334 93.6942 82.533 93.3295 81.1195C86.119 53.911 45.8645 53.922 38.676 81.1195C38.4774 81.8244 38.4217 82.5619 38.5119 83.2887C38.6022 84.0155 38.8368 84.7169 39.2018 85.3519C39.5668 85.9868 40.0549 86.5424 40.6376 86.9862C41.2202 87.4299 41.8856 87.7528 42.5947 87.936C43.3038 88.1191 44.0423 88.1588 44.7669 88.0526C45.4916 87.9465 46.1877 87.6967 46.8145 87.318C47.4414 86.9392 47.9862 86.439 48.4171 85.8469C48.8481 85.2547 49.1564 84.5824 49.324 83.8695ZM66.0495 130.158C63.3361 130.159 60.7168 129.163 58.6905 127.358L38.0765 110H22C16.1652 110 10.5695 107.682 6.44365 103.556C2.31785 99.4305 0 93.8348 0 88V22C0 16.1652 2.31785 10.5695 6.44365 6.44365C10.5695 2.31785 16.1652 0 22 0L110 0C115.835 0 121.431 2.31785 125.556 6.44365C129.682 10.5695 132 16.1652 132 22V88C132 93.8348 129.682 99.4305 125.556 103.556C121.431 107.682 115.835 110 110 110H94.3085L73.15 127.49C71.1898 129.219 68.6632 130.168 66.0495 130.158ZM22 11C19.0826 11 16.2847 12.1589 14.2218 14.2218C12.1589 16.2847 11 19.0826 11 22V88C11 90.9174 12.1589 93.7153 14.2218 95.7782C16.2847 97.8411 19.0826 99 22 99H40.0895C41.3856 99 42.64 99.4578 43.6315 100.293L65.8845 119.048L88.8305 100.259C89.8164 99.4452 91.0553 98.9998 92.334 99H110C112.917 99 115.715 97.8411 117.778 95.7782C119.841 93.7153 121 90.9174 121 88V22C121 19.0826 119.841 16.2847 117.778 14.2218C115.715 12.1589 112.917 11 110 11H22Z" fill="#401F71"/>
</svg>
