<svg width="445" height="459" viewBox="0 0 445 459" fill="none" xmlns="http://www.w3.org/2000/svg">
<path d="M200.98 209.209L251.26 233.769L174.47 390.919C165.46 387.829 156.78 384.189 148.39 380.029C140.05 375.889 132.02 371.219 124.34 366.049L200.97 209.209H200.98ZM203.06 204.959L253.34 229.519L309.08 115.439L262.17 83.949L203.05 204.939V204.959H203.06ZM122.38 370.419C118.87 379.569 115.8 396.929 114.37 413.029C113.34 424.569 113.01 435.309 113.79 441.529C113.77 441.599 113.7 441.639 113.68 441.709L110.79 449.309C110.07 451.209 111.01 453.339 112.91 454.049C113.33 454.209 113.78 454.299 114.21 454.299C115.69 454.299 117.1 453.409 117.65 451.929L120 445.709C125.21 442.849 134.07 435.729 143.24 427.369C155.18 416.479 167.22 403.549 172.3 395.139C163.31 392.009 154.65 388.379 146.35 384.269C138.05 380.149 130.07 375.519 122.42 370.399L122.37 370.419H122.38ZM341.79 11.659C340.78 8.70897 338.64 6.13899 335.64 4.67899L329.82 1.83915C326.82 0.359149 323.49 0.26909 320.54 1.27909C317.59 2.28909 315.02 4.42899 313.56 7.42899L294.97 45.459L319.93 57.0191L320.09 57.0891C321.03 57.5592 321.95 58.099 322.8 58.679L341.23 20.969C342.71 17.969 342.8 14.639 341.79 11.689V11.669V11.659ZM318.03 61.3391L317.96 61.2991L290.92 48.7691C290.92 48.7691 290.81 48.729 290.76 48.699L290.63 48.6289L255.09 31.969L243.5 55.5191C243.43 55.6291 243.32 55.6991 243.25 55.8291L177.78 188.849C176.66 191.129 177.6 193.879 179.86 194.999C180.51 195.309 181.2 195.469 181.87 195.469C183.57 195.469 185.2 194.529 185.99 192.899L247.3 68.3091L262.38 78.419C262.49 78.489 262.58 78.5292 262.67 78.5992L311.14 111.149L325.23 82.3391C327.13 78.4691 327.27 74.1492 325.95 70.3492C324.65 66.5492 321.9 63.2392 318.01 61.3391H318.04H318.03Z" fill="#401F71"/>
<path d="M269.87 234.265C270.96 234.015 272.04 233.735 273.13 233.525C273.5 233.455 273.95 233.485 274.28 233.645C275.18 234.095 275.98 234.215 276.84 233.505C277.12 233.275 277.69 233.365 278.13 233.385C279.04 233.415 279.94 233.515 280.85 233.525C281.86 233.535 282.88 233.475 283.89 233.455C284.46 233.445 285.03 233.455 285.77 233.455C286.44 234.165 286.64 234.165 287.26 233.235C288.38 233.465 286.91 234.455 287.76 234.805C287.83 234.655 287.92 234.515 287.96 234.365C288.23 233.445 288.7 233.185 289.65 233.165C290.62 233.145 291.59 232.955 292.56 232.875C292.81 232.855 293.13 232.915 293.31 233.075C293.72 233.445 293.99 233.495 294.32 232.975C294.41 232.835 294.81 232.825 295.05 232.865C296.58 233.155 298.11 233.055 299.64 232.865C300.77 232.715 301.91 232.605 303.05 232.515C303.24 232.495 303.44 232.655 303.64 232.675C304.16 232.715 304.57 232.925 305.21 232.535C305.89 232.105 306.98 232.305 307.89 232.275C307.96 232.275 308.03 232.625 308.12 232.805C308.21 232.985 308.32 233.155 308.51 233.465C309.09 231.735 310.51 232.095 311.61 231.895C312.87 231.675 314.18 231.665 315.46 231.585C316.75 231.505 318.08 230.935 319.28 231.945C319.36 232.005 319.69 231.835 319.85 231.715C320.28 231.365 320.67 231.025 321 231.545C321.55 231.515 322 231.485 322.63 231.445C323.11 231.365 323.79 231.215 324.48 231.145C326 231.005 327.51 230.875 329.03 230.785C329.98 230.725 330.94 230.785 331.89 230.735C332.94 230.675 334 230.545 335.05 230.455C335.99 230.375 336.94 230.305 337.88 230.275C338.01 230.275 338.15 230.545 338.27 230.435C339.1 230.285 339.93 229.965 340.75 230.015C342.58 230.135 344.35 229.925 346.14 229.635C347.81 229.365 349.52 229.405 351.21 229.255C352.16 229.165 353.1 228.895 354.05 228.825C355.11 228.745 356.19 228.825 357.26 228.765C358.9 228.685 360.54 228.555 362.18 228.435C363.47 228.345 364.76 228.225 366.05 228.155C367.62 228.075 369.2 228.135 370.75 227.945C372.06 227.775 373.33 227.275 374.64 227.035C375.19 226.935 375.79 227.195 376.37 227.205C377.33 227.215 378.29 227.205 379.24 227.105C380.61 226.975 381.97 226.745 383.34 226.585C384.92 226.405 386.5 226.265 388.07 226.095C389.33 225.955 390.59 225.785 391.84 225.615C392.01 225.595 392.23 225.535 392.32 225.415C392.86 224.645 393.47 224.845 393.86 225.125C394.79 224.895 395.51 224.675 396.25 224.555C397.22 224.395 398.2 224.315 399.17 224.195C399.99 224.095 400.08 224.125 400.57 224.955C401.21 224.665 401.85 224.315 402.53 224.075C403.25 223.815 404.02 223.415 404.51 224.005C405.12 223.845 405.56 223.715 406.01 223.615C406.38 223.525 406.76 223.455 407.14 223.405C408.59 223.225 410.04 223.005 411.49 222.895C412.75 222.805 413.98 222.585 415.2 222.245C415.8 222.075 416.44 222.055 417.06 221.965C418.35 221.775 419.72 221.945 420.82 220.955C421.05 220.745 421.55 220.835 421.77 220.805C421.98 221.125 422.12 221.345 422.27 221.585C422.02 221.695 421.63 221.805 421.33 222.025C421.16 222.155 421.11 222.455 421.01 222.685C421.21 222.745 421.41 222.875 421.61 222.865C423 222.775 424.33 222.985 425.2 223.565C424.5 223.895 423.91 224.165 423.08 224.555C423.28 224.825 423.45 225.275 423.73 225.355C424.09 225.455 424.54 225.245 424.95 225.175C424.97 225.255 424.99 225.345 425.02 225.425C424.36 225.625 423.7 225.825 423.04 226.035C423.05 226.125 423.07 226.215 423.08 226.295C423.65 226.245 424.23 226.145 424.8 226.165C425.04 226.165 425.27 226.445 425.5 226.595C425.26 226.805 425.05 227.135 424.77 227.205C424.26 227.325 423.71 227.295 423.17 227.335C423.15 227.445 423.13 227.555 423.1 227.665C423.32 227.805 423.53 227.985 423.77 228.085C424.49 228.385 424.56 228.795 424.07 229.385C422.83 230.875 421.28 231.445 419.34 231.495C417.36 231.555 415.4 232.035 413.42 232.195C411.53 232.355 409.62 232.325 407.73 232.415C405.56 232.525 403.39 232.665 401.22 232.805C399.48 232.915 397.75 233.105 396.01 233.155C394.92 233.185 393.83 232.955 392.74 232.955C391.96 232.955 391.19 233.155 390.41 233.225C389.94 233.265 389.45 233.175 388.98 233.225C387.24 233.415 385.51 233.705 383.76 233.835C381.97 233.965 380.17 233.925 378.37 234.005C376.84 234.065 375.31 234.155 373.78 234.285C371.94 234.445 370.12 234.745 368.28 234.855C365.63 235.015 362.96 235.015 360.31 235.185C358.64 235.285 356.98 235.615 355.31 235.765C353.87 235.895 352.43 235.925 350.99 235.965C349.43 236.015 347.86 236.045 346.3 236.045C345.34 236.045 344.35 236.115 343.43 235.905C342.77 235.755 342.2 235.185 341.43 234.705C341.4 235.215 341.37 235.625 341.33 236.175C340.75 236.055 340.17 235.975 339.62 235.815C339.47 235.775 339.3 235.505 339.3 235.345C339.28 234.565 338.6 234.795 338.21 234.605C338.18 234.585 337.94 234.835 337.96 234.905C338 235.045 338.14 235.175 338.28 235.265C338.5 235.415 338.74 235.525 339.04 235.685C338.41 235.935 338 236.195 337.56 236.265C336.62 236.415 335.67 236.465 334.72 236.575C333.46 236.725 332.21 236.925 330.96 237.045C329.86 237.145 328.75 237.145 327.65 237.195C327.33 237.215 326.99 237.205 326.69 237.295C325.54 237.635 324.46 237.575 323.34 237.065C322.9 236.865 322.26 236.835 321.81 236.985C320.71 237.355 319.66 237.515 318.48 237.375C317.76 237.295 316.99 237.845 316.23 237.945C315.45 238.045 314.64 237.945 313.84 237.945C313.61 237.945 313.36 237.965 313.16 238.065C312.4 238.415 311.81 238.365 311.5 237.395C310.92 237.855 310.39 238.695 309.82 237.705C309.5 237.855 309.26 238.005 309 238.095C307.35 238.635 305.64 238.335 303.96 238.435C302.78 238.505 301.61 238.755 300.43 238.855C298.61 239.015 296.78 239.175 294.96 239.245C293.79 239.295 292.61 239.185 291.43 239.145C291.15 239.145 290.87 239.115 290.51 239.105C291.49 237.755 292.36 237.675 293.8 238.125C294.59 238.365 295.56 238.005 296.45 237.905C296.44 237.765 296.43 237.615 296.42 237.475C293.87 237.475 291.33 237.475 288.69 237.475C288.63 237.335 288.54 237.105 288.44 236.865C288.19 237.195 287.96 237.495 287.68 237.855C288.13 237.975 288.56 238.085 289 238.195C288.86 238.495 288.71 238.785 288.54 239.145C286.84 239.435 285.04 239.805 283.23 240.005C282.51 240.085 281.75 239.765 281 239.725C280.09 239.675 279.18 239.705 278.28 239.745C276.79 239.815 275.31 239.945 273.82 239.985C272.97 240.005 272.1 239.975 271.27 239.825C270.97 239.775 270.29 239.565 270.79 238.865C270.89 238.725 270.61 238.315 270.45 237.895C269.62 238.145 268.85 238.375 267.9 238.655C268.54 239.055 268.95 239.305 269.36 239.565L269.25 239.935C268.49 240.085 267.72 240.345 266.96 240.345C265.32 240.335 263.69 240.105 262.05 240.115C260.92 240.115 259.79 240.465 258.65 240.515C257.46 240.565 256.27 240.435 255.08 240.415C254.64 240.415 254.2 240.535 253.76 240.575C252.03 240.725 250.29 240.875 248.56 240.975C248.04 241.005 247.5 240.815 246.98 240.835C246.24 240.865 245.49 241.045 244.75 241.065C243.44 241.085 242.13 240.995 240.82 241.025C239.74 241.055 238.67 241.225 237.59 241.275C235.74 241.355 233.89 241.395 232.04 241.445C231.92 241.445 231.77 241.475 231.68 241.415C230.54 240.595 229.41 241.265 228.26 241.395C227.28 241.505 226.27 241.415 225.28 241.335C225.08 241.315 224.91 240.915 224.69 240.635C223.73 241.965 222.28 241.075 221.11 241.475C221.03 241.505 220.81 241.125 220.66 240.935C220.87 240.835 221.07 240.645 221.28 240.645C221.63 240.645 221.98 240.825 222.33 240.815C222.55 240.815 222.77 240.585 222.99 240.465C222.96 240.355 222.92 240.255 222.89 240.145C221.79 240.195 220.68 240.245 219.33 240.315C219.73 240.735 219.92 240.945 220.15 241.175C219.67 241.635 219.24 241.605 218.67 241.365C218.22 241.185 217.66 241.245 217.15 241.275C216.9 241.295 216.66 241.535 216.41 241.575C214.93 241.795 213.45 242.025 211.96 242.175C211.09 242.265 210.19 242.325 209.61 241.565C208.76 241.685 207.97 241.845 207.18 241.905C205.29 242.055 203.4 242.235 201.51 242.255C200.11 242.275 198.7 241.995 197.3 241.965C195.93 241.935 194.56 242.065 193.19 242.125C191.82 242.185 190.44 242.205 189.08 242.345C188.59 242.395 188.13 242.705 187.8 242.835C187.4 242.635 187.1 242.375 186.79 242.355C185.54 242.265 184.28 242.195 183.02 242.235C182.19 242.265 181.36 242.585 180.53 242.615C179.33 242.655 178.12 242.545 176.91 242.505C175.81 242.465 174.71 242.455 173.61 242.415C171.77 242.355 169.93 242.245 168.09 242.235C166.71 242.235 165.32 242.385 163.94 242.415C163.01 242.435 162.07 242.335 161.14 242.335C159.16 242.335 157.18 242.375 155.2 242.375C154.15 242.375 153.1 242.295 152.06 242.305C151.53 242.305 150.99 242.525 150.46 242.485C149.21 242.385 147.98 242.345 146.71 242.405C145.36 242.475 143.96 242.545 142.57 242.345C141.19 242.145 139.77 242.165 138.36 242.175C137.24 242.175 136.13 242.385 135.01 242.385C133.24 242.385 131.46 242.095 129.72 242.285C128.43 242.425 127.31 242.215 126.16 241.805C125.96 241.735 125.68 241.835 125.45 241.875C124.42 242.065 123.4 242.265 122.32 242.025C121.8 241.905 121.2 242.255 120.64 242.225C119.57 242.165 118.5 241.975 117.43 241.855C117.26 241.835 117.08 241.845 116.9 241.855C115.05 241.985 113.2 242.225 111.35 242.235C108.21 242.245 105.08 242.115 101.94 242.045C99.2799 241.995 96.6199 241.905 93.9699 241.925C92.7299 241.925 91.4899 242.205 90.2499 242.265C89.5099 242.295 88.77 242.105 88.03 242.095C87.11 242.085 86.19 242.215 85.28 242.175C84.14 242.125 83 241.905 81.86 241.865C81.06 241.835 80.2399 242.005 79.4399 242.085C78.9399 242.135 78.4299 242.305 77.9499 242.235C75.3599 241.835 72.7498 241.875 70.1398 241.905C68.9098 241.915 67.6799 241.695 66.4499 241.685C65.1499 241.685 63.85 241.785 62.56 241.855C60.88 241.945 59.1899 241.985 57.52 242.155C55.7999 242.325 55.28 243.205 55.55 244.945C55.67 245.755 55.6199 246.605 55.52 247.425C55.47 247.795 55.1398 248.145 54.9098 248.485C54.5798 248.995 54.2298 249.495 53.8798 249.995C53.5998 250.395 53.3199 250.805 53.0099 251.195C52.8999 251.335 52.64 251.375 52.58 251.515C52 252.925 50.8499 252.775 49.7499 252.455C49.1499 252.275 48.55 251.895 48.09 251.465C46.43 249.885 44.2599 249.625 42.1999 249.045C41.5399 248.865 40.98 248.355 40.32 248.125C39.14 247.725 37.9199 247.405 36.7099 247.075C35.4199 246.725 34.13 246.405 32.84 246.075C32.46 245.975 32.0899 245.845 31.7099 245.775C30.7699 245.605 29.8298 245.475 28.8898 245.295C27.9898 245.125 27.0599 245.005 26.2199 244.685C25.0099 244.215 23.8499 243.615 22.6999 242.995C22.3999 242.835 22.24 242.385 22.03 242.065C21.74 241.635 21.3699 241.225 21.1999 240.745C20.6599 239.215 20.1599 237.665 19.7399 236.095C19.6099 235.595 19.75 235.025 19.78 234.485C19.8 233.975 19.81 233.475 19.87 232.965C19.9 232.685 19.93 232.325 20.1 232.145C21.36 230.895 22.6299 229.655 23.9599 228.485C24.3199 228.165 24.87 227.975 25.37 227.885C27.1 227.595 28.84 227.305 30.59 227.145C32.31 226.985 34.05 226.955 35.78 226.945C36.34 226.945 36.9999 227.025 37.4299 227.325C38.6599 228.165 39.7999 229.075 39.9999 230.765C40.1199 231.785 40.5798 232.775 40.9098 233.775C41.1198 234.395 41.6099 234.445 42.2099 234.515C43.8499 234.705 44.61 233.705 45.35 232.505C45.57 232.145 46.1798 231.895 46.6298 231.855C47.3198 231.795 47.7799 231.655 48.1899 231.015C48.8499 229.975 49.3499 230.085 49.9799 231.185C50.6499 231.005 51.3199 230.885 51.9299 230.635C52.5799 230.365 52.8999 230.685 53.1999 231.145C53.4699 231.575 53.7599 232.015 53.9599 232.485C54.3299 233.365 55.07 233.465 55.87 233.495C56.23 233.505 56.5899 233.525 56.9399 233.555C58.1699 233.665 59.3998 233.805 60.6298 233.875C62.0598 233.955 63.4999 233.965 64.9299 234.015C67.0399 234.085 69.1399 234.155 71.2499 234.235C71.6399 234.245 72.0499 234.355 72.4199 234.275C72.7399 234.215 73 233.935 73.31 233.775C73.68 233.595 74.0499 233.345 74.4299 233.305C74.8699 233.265 75.4399 233.265 75.4599 234.105C74.8899 234.155 74.34 234.205 73.79 234.265C73.78 234.325 73.7699 234.385 73.7499 234.435C73.9099 234.475 74.0699 234.555 74.2299 234.565C76.5399 234.605 78.8498 234.645 81.1498 234.645C82.1498 234.645 83.1598 234.525 84.1598 234.545C84.5398 234.545 84.92 234.795 85.36 234.955C86.33 234.325 87.47 234.765 88.57 234.855C89.3 234.915 89.9999 235.285 90.7399 235.395C91.0199 235.435 91.35 235.145 91.55 235.055C92.44 235.125 93.26 235.235 94.09 235.255C96.41 235.305 98.72 235.325 101.04 235.365C102.22 235.385 103.39 235.405 104.57 235.435C107.55 235.505 110.53 235.595 113.52 235.665C114.66 235.685 115.81 235.635 116.95 235.665C118.54 235.705 120.13 235.795 121.72 235.835C123.41 235.875 125.11 235.845 126.8 235.925C128.06 235.985 129.3 236.215 130.56 236.295C131.2 236.335 131.85 236.165 132.5 236.185C132.86 236.185 133.22 236.385 133.53 236.325C134.13 236.225 134.73 236.055 135.34 236.025C136.77 235.955 138.2 235.945 139.63 235.935C139.96 235.935 140.33 235.935 140.61 236.075C141.21 236.385 141.75 236.425 142.32 236.045C142.41 235.985 142.6 235.915 142.66 235.965C144.06 236.985 145.72 235.815 147.15 236.505C149.52 235.975 151.91 236.545 154.28 236.425C154.55 236.415 154.79 235.985 155.08 235.945C155.43 235.895 155.81 236.085 156.18 236.105C157.29 236.155 158.4 236.165 159.51 236.195C159.59 236.195 159.69 236.335 159.74 236.315C160.75 235.945 161.78 236.565 162.85 236.135C164.07 235.645 165.36 235.715 166.6 236.355C167.3 236.715 167.98 236.725 168.83 236.405C169.84 236.025 171.04 236.125 172.16 236.055C172.22 236.055 172.3 236.475 172.4 236.805C172.73 236.655 173.13 236.525 173.47 236.305C174.27 235.795 175.07 235.705 175.92 236.185C176.17 236.325 176.49 236.465 176.75 236.425C177.97 236.245 178.52 236.715 178.46 237.945C178.45 238.155 178.44 238.365 178.52 238.585C178.56 237.855 179.83 237.185 178.58 236.335C179.84 236.385 181.08 235.595 182.24 236.605C182.36 236.715 182.72 236.725 182.86 236.625C183.61 236.075 184.32 236.555 185.04 236.515C185.06 236.595 185.08 236.675 185.1 236.755C184.8 236.975 184.5 237.195 184.2 237.405C184.85 238.195 186.12 238.295 187.38 237.655C186.82 237.315 186.26 236.975 185.67 236.615C186.35 235.995 186.95 235.945 187.77 236.015C189.46 236.165 191.18 235.955 192.89 235.895C193.1 235.895 193.34 235.825 193.52 235.895C195.09 236.545 196.74 236.015 198.34 236.245C198.76 236.305 199.18 236.305 199.62 236.425C200.03 236.535 200.52 236.265 200.98 236.225C201.35 236.195 201.75 236.205 202.11 236.285C202.53 236.375 202.88 236.545 203.19 236.035C203.28 235.895 203.74 236.005 204.02 235.945C205.64 235.605 207.25 235.895 208.86 235.915C210.27 235.935 211.68 235.785 213.09 235.715C214.8 235.625 216.51 235.525 218.22 235.475C218.39 235.475 218.66 235.725 218.72 235.905C218.83 236.245 218.82 236.615 218.88 237.095C217.9 237.095 216.88 237.095 215.63 237.095C217.28 237.985 219.75 237.935 220.79 237.015C220.29 236.945 219.9 236.885 219.52 236.835C219.52 236.555 219.52 236.265 219.52 235.985C219.52 235.315 220.01 235.095 220.54 235.115C220.91 235.125 221.36 235.285 221.61 235.535C222.27 236.205 222.77 236.245 223.04 235.625C223.86 235.495 224.47 235.445 225.05 235.295C225.55 235.165 225.82 235.225 225.65 236.075C226.36 235.785 226.89 235.505 227.45 235.355C227.89 235.235 228.38 235.215 228.84 235.235C229.44 235.265 230.03 235.385 230.63 235.435C230.77 235.445 230.91 235.285 231.07 235.225C231.62 235.015 232.17 234.825 232.41 235.685C233.2 235.445 233.99 235.185 234.79 234.955C235.4 234.785 235.82 234.975 235.82 235.625C236.72 235.335 237.61 234.735 238.42 234.835C240.21 235.065 241.92 234.355 243.68 234.625C244.2 234.705 244.76 235.015 245.22 234.905C246.22 234.645 247.25 235.495 248.01 235.075C249.12 234.475 250.06 235.145 251.06 235.025C251.93 234.925 252.8 234.725 253.68 234.665C255 234.575 256.31 233.975 257.65 234.765C258.01 234.975 258.65 235.075 259.19 234.505C259.47 234.205 260.3 234.355 260.86 234.425C261.17 234.465 261.4 234.515 261.75 234.465C263.29 234.245 264.85 234.115 266.41 234.115C266.89 234.115 267.37 234.615 267.7 234.795C267.7 235.245 267.67 235.765 267.7 235.765C268.14 235.815 268.6 235.805 269.05 235.805C268.97 235.715 268.89 235.615 268.8 235.525C268.98 234.995 269.16 234.455 269.34 233.925C269.55 234.045 269.75 234.165 269.96 234.285C269.59 234.425 269.44 234.535 269.63 235.055C269.98 236.015 270.59 235.555 271.25 235.585C270.76 235.085 270.34 234.675 269.93 234.265H269.87ZM225.34 239.605C225.3 239.725 225.27 239.835 225.23 239.955C225.68 240.405 226.03 240.935 226.88 240.775C228.33 240.485 229.81 240.305 231.35 240.065C231.25 239.775 231.18 239.565 231.1 239.345C229.93 240.075 229.11 240.145 227.77 239.855C226.98 239.685 226.14 239.685 225.33 239.605H225.34ZM297.98 234.325C297.98 234.435 298 234.545 298 234.655C299.74 234.605 301.48 234.565 303.21 234.495C303.31 234.495 303.4 234.235 303.49 234.095C303.35 234.025 303.21 233.885 303.07 233.895C302.3 233.925 301.54 234.015 300.77 234.055C300.16 234.085 299.47 234.245 298.96 234.025C298.37 233.775 298.23 234.055 297.97 234.335L297.98 234.325ZM258.2 235.885C257.99 235.765 257.92 235.685 257.85 235.685C256.53 235.735 255.2 235.765 253.88 235.865C253.66 235.885 253.43 236.115 253.27 236.305C253.21 236.375 253.29 236.725 253.37 236.745C253.61 236.815 253.93 236.885 254.11 236.775C254.45 236.575 254.71 236.275 255.12 236.665C255.23 236.765 255.48 236.815 255.63 236.765C256.45 236.515 257.26 236.225 258.2 235.895V235.885ZM325.05 232.955C325.38 233.365 325.92 233.655 326.64 233.335C326.81 233.255 326.92 233.065 327.06 232.925C326.91 232.795 326.79 232.615 326.61 232.545C325.25 232.005 323.91 232.585 322.56 232.665C322.5 232.665 322.44 232.825 322.26 233.085C323.24 233.035 324.04 233.005 325.05 232.955ZM226.33 237.015C227.22 238.015 228.13 237.965 229.24 236.905C228.3 236.045 227.83 236.055 226.33 237.015ZM290.93 233.835C290.4 234.665 290.54 234.785 292.86 235.195C293.02 234.855 293.2 234.505 293.38 234.125C292.54 234.025 291.8 233.945 290.93 233.835ZM327.13 234.555C327.02 234.555 326.92 234.555 326.81 234.545C326.68 234.795 326.55 235.035 326.41 235.315C325.84 235.275 325.27 235.225 324.7 235.205C324.57 235.205 324.34 235.295 324.33 235.375C324.3 235.525 324.36 235.825 324.44 235.855C324.76 235.945 325.11 235.985 325.45 235.995C325.7 235.995 325.95 235.905 326.2 235.875C326.59 235.835 326.99 235.805 327.38 235.775C327.29 235.365 327.21 234.965 327.12 234.555H327.13ZM287.05 235.085C286.85 234.765 286.68 234.245 286.48 234.235C285.71 234.195 284.93 234.305 284.16 234.365C284.98 235.335 285.92 235.355 287.05 235.085ZM256.54 239.565C255.69 238.575 254.36 238.545 253.77 239.455C254.65 239.975 255.52 240.175 256.54 239.565ZM342.71 231.085C341.137 231.298 340.257 231.585 340.07 231.945C340.46 232.015 340.87 232.085 341.36 232.165C341.48 231.585 342.92 232.425 342.71 231.085ZM240.08 240.035C240.08 239.925 240.07 239.825 240.06 239.715C238.85 239.715 237.64 239.715 236.44 239.715C236.42 239.835 236.39 239.945 236.37 240.065C236.69 240.165 237 240.325 237.33 240.345C237.76 240.375 238.19 240.295 238.62 240.245C239.11 240.185 239.6 240.105 240.09 240.035H240.08ZM209.32 237.285H205.02C205.02 237.435 205.02 237.595 205.03 237.745C206.46 237.595 207.9 238.045 209.31 237.285H209.32ZM200.92 240.615C202.14 241.465 203.35 240.855 204.54 240.775C203.37 240.385 202.18 240.205 200.92 240.615ZM238.15 236.845C238.17 236.945 238.18 237.035 238.2 237.135C238.57 237.175 238.95 237.265 239.32 237.245C239.66 237.225 240.11 237.195 240.28 236.985C240.44 236.785 240.28 236.345 240.27 236.065C239.43 236.375 238.79 236.605 238.16 236.845H238.15ZM169.22 237.495C168.57 237.495 168.12 237.515 167.67 237.495C167.12 237.465 166.57 237.415 166.03 237.365C166.03 237.455 166.02 237.545 166.01 237.635C166.46 237.765 166.93 237.825 167.34 238.035C168.06 238.415 168.58 238.195 169.22 237.495ZM323.26 236.075C322.59 235.785 321.96 235.505 321.31 235.225C321.14 236.485 321.7 236.835 323.26 236.075ZM233.07 236.565V237.065C233.71 237.115 234.37 237.165 235.02 237.185C235.11 237.185 235.28 237.005 235.28 236.905C235.28 236.785 235.14 236.585 235.05 236.575C234.39 236.545 233.73 236.555 233.07 236.555V236.565ZM339.43 231.395C338.55 231.585 337.85 231.735 337.16 231.885C337.16 231.975 337.16 232.075 337.16 232.165C337.79 232.245 338.42 232.325 339.21 232.415C339.26 232.185 339.33 231.835 339.42 231.395H339.43ZM282.62 235.225C282.62 235.095 282.62 234.955 282.62 234.825C281.82 235.055 281.03 233.875 280 235.095C281.02 235.145 281.82 235.185 282.62 235.225ZM243.69 239.865C243.69 239.755 243.67 239.635 243.66 239.525C242.94 239.565 242.22 239.605 241.5 239.635C241.5 239.765 241.51 239.895 241.52 240.025C242.23 239.475 243 240.825 243.69 239.865ZM201.61 237.635C201.61 237.555 201.59 237.475 201.59 237.395C200.58 237.025 200.07 237.095 199.39 237.855C200.25 237.775 200.93 237.705 201.61 237.635ZM332.28 234.615C332.93 235.675 333.29 235.715 334.46 235.135C333.79 234.975 333.15 234.825 332.28 234.615ZM259.11 235.825C259.12 235.975 259.13 236.115 259.14 236.265C259.93 236.115 260.71 235.975 261.5 235.825L261.44 235.505C260.66 235.615 259.88 235.715 259.11 235.825ZM202.5 237.225C202.5 237.335 202.49 237.445 202.48 237.555C203.14 237.665 203.8 237.775 204.46 237.885C204.48 237.715 204.5 237.545 204.51 237.375C203.84 237.325 203.17 237.285 202.5 237.235V237.225ZM285.26 237.435C284.64 237.585 284.15 237.705 283.67 237.825C283.7 237.925 283.72 238.025 283.75 238.125C284.19 237.875 285.06 238.875 285.26 237.445V237.435ZM304.63 236.895L304.51 236.365C304.09 236.485 303.68 236.605 303.26 236.725C303.3 236.875 303.34 237.025 303.38 237.175C303.8 237.085 304.21 236.985 304.63 236.895ZM319.39 235.805C318.81 235.765 318.48 235.725 318.16 235.725C318.03 235.725 317.9 235.775 317.79 235.845C317.76 235.865 317.78 236.075 317.8 236.085C318.16 236.175 318.53 236.285 318.9 236.285C319.04 236.285 319.19 236.015 319.39 235.815V235.805ZM297.44 234.465C297.43 234.355 297.42 234.245 297.4 234.135C296.68 234.195 295.96 234.255 295.25 234.325L295.29 234.625C296.01 234.575 296.73 234.525 297.45 234.475L297.44 234.465ZM173.79 237.645C173.76 237.515 173.72 237.375 173.69 237.245C173.22 237.355 172.75 237.465 172.28 237.575C172.31 237.715 172.35 237.845 172.38 237.985C172.85 237.875 173.32 237.755 173.78 237.645H173.79ZM242.92 236.495C243.39 237.165 243.92 237.155 244.68 236.495H242.92Z" fill="#F6583B"/>
<path d="M50.9901 271.405C48.8501 271.405 46.64 271.085 44.42 270.435C42.15 269.775 39.95 268.716 37.93 267.316C37.68 267.246 37.42 267.176 37.17 267.106C35.49 266.626 34.14 266.035 33.15 265.535C32.87 265.455 32.5701 265.375 32.2801 265.306L28.13 264.225C28.06 264.205 27.9101 264.165 27.7501 264.125L27.4401 264.076C26.7401 263.966 26.0502 263.855 25.3502 263.715C23.7802 263.435 21.8001 263.075 19.4601 262.185C17.2001 261.315 15.2901 260.315 13.7101 259.455C10.6501 257.785 8.16013 255.385 6.27013 252.306C5.33013 250.965 4.26006 249.225 3.45006 246.875C2.79006 244.985 2.15021 242.975 1.60021 240.945C0.660211 237.565 0.890142 234.605 1.03014 233.235C1.07014 232.345 1.11005 231.635 1.19005 230.925C1.84005 224.845 4.70009 220.935 6.98009 218.705C8.36009 217.335 9.90009 215.845 11.4801 214.435C14.5201 211.765 18.2201 210.045 22.2501 209.375C24.4101 209.005 26.65 208.655 28.89 208.455C31.06 208.255 33.3302 208.195 35.5902 208.175H35.7902C40.1102 208.175 44.1802 209.346 47.6002 211.576C48.2102 211.526 48.8201 211.525 49.4501 211.525C50.1101 211.545 50.9801 211.605 51.9901 211.765C55.8801 211.585 60.0102 212.885 63.3502 215.185C63.4702 215.185 63.6001 215.185 63.7301 215.185L68.8002 215.346C69.9102 215.026 71.2 214.736 72.64 214.596C75.78 214.256 78.9202 214.695 81.8002 215.805C82.8302 215.755 83.6401 215.725 84.4801 215.745C85.0301 215.755 85.5602 215.796 86.0702 215.846C87.5202 215.816 89.0102 215.915 90.5502 216.155C90.8202 216.185 91.0702 216.215 91.3202 216.245C91.8802 216.245 92.4101 216.255 92.9701 216.295L94.7001 216.455C95.9301 216.485 97.3401 216.495 98.7601 216.515L113.89 216.846H114.97C115.77 216.836 116.56 216.826 117.36 216.846L123.89 217.035C125.15 217.035 126.41 217.055 127.67 217.125C128.72 217.175 129.78 217.285 130.86 217.405C131.51 217.365 132.15 217.336 132.75 217.356C133.27 217.296 133.83 217.245 134.44 217.215C135.95 217.145 137.52 217.126 139.09 217.106C139.67 217.106 140.57 217.085 141.71 217.185C143.1 217.115 144.43 217.215 145.77 217.435C146.33 217.435 146.93 217.445 147.58 217.495C148.98 217.405 150.22 217.435 151.27 217.485C151.62 217.415 151.97 217.355 152.33 217.305C154.65 216.975 156.65 217.116 158.09 217.326L159.9 217.375C160.06 217.375 160.2 217.375 160.34 217.375C163.05 216.885 165.82 216.895 168.53 217.375C169.48 217.295 170.26 217.275 170.83 217.265C171.15 217.245 171.54 217.235 171.89 217.235C174.1 216.925 176.35 216.975 178.55 217.395C180.37 217.225 182.06 217.265 183.61 217.475C185.34 217.195 187.21 217.095 189.25 217.265C189.38 217.265 189.78 217.215 190.18 217.195C190.69 217.165 191.2 217.136 191.71 217.116C193.45 216.996 195.16 217.075 196.81 217.385C197.59 217.385 198.49 217.385 199.48 217.475C199.79 217.445 200.1 217.425 200.42 217.415C200.88 217.335 201.34 217.275 201.81 217.235C204.68 216.825 207.03 216.986 208.54 217.076L209.1 217.116C209.55 217.116 209.95 217.065 210.41 217.035L212.83 216.895C214.02 216.835 215.2 216.765 216.38 216.715C217.86 216.415 219.35 216.286 220.96 216.326C221.75 216.356 222.53 216.435 223.29 216.545C224.43 216.425 225.59 216.405 226.75 216.495C227.51 216.445 228.31 216.425 229.07 216.445C230.29 216.285 231.45 216.235 232.51 216.285C233.73 216.125 234.96 216.075 236.15 216.135C237.01 216.045 237.93 216.025 238.86 216.045C240.73 215.815 243.35 215.575 246.46 216.045C246.57 216.055 246.67 216.076 246.78 216.096C246.89 216.096 246.99 216.106 247.09 216.116C248.23 216.026 249.39 216.016 250.55 216.096C250.93 216.046 251.29 216.005 251.65 215.975C252.92 215.755 255.13 215.435 257.86 215.655C258.91 215.555 260.02 215.546 261.18 215.606C262.92 215.426 264.58 215.326 266.52 215.336H266.66C267.51 215.216 268.37 215.155 269.22 215.155C269.39 215.115 269.57 215.085 269.74 215.055C271.42 214.735 273.14 214.655 274.85 214.755C276.14 214.595 277.53 214.535 279.01 214.635C279.33 214.635 279.98 214.685 280.63 214.725L281.14 214.755C281.46 214.755 281.8 214.735 282.14 214.725L284.37 214.675C285.51 214.495 286.68 214.435 287.84 214.465C288.16 214.435 288.48 214.415 288.8 214.405C289.77 214.285 290.41 214.205 291.06 214.155C291.85 214.105 292.63 214.096 293.42 214.116C294.69 214.026 295.99 214.065 297.28 214.225C298.85 214.035 300.15 213.905 301.46 213.795C301.93 213.755 302.42 213.735 302.91 213.735C304.81 213.445 306.4 213.455 307.4 213.475C307.97 213.385 308.56 213.315 309.18 213.265C310.93 213.005 312.42 212.935 313.54 212.885L313.84 212.866C315.45 212.646 317.01 212.555 318.52 212.625C319.76 212.485 320.9 212.485 321.88 212.545L322.59 212.465C324.45 212.295 326.2 212.155 327.94 212.055C328.79 212.005 329.63 212.025 330.49 211.995H330.98C331.2 211.985 331.58 211.935 331.96 211.895L333.48 211.755C334.65 211.655 335.83 211.575 337.01 211.525C338.37 211.305 340.06 211.165 341.99 211.295C342.22 211.285 342.66 211.185 343.1 211.125C344.84 210.845 346.59 210.715 348.35 210.635C348.62 210.625 348.88 210.616 349.14 210.596C350.44 210.356 351.52 210.196 352.6 210.116C353.62 210.026 354.73 209.985 355.88 210.015H356.38C357.43 209.965 358.55 209.875 359.67 209.795L362.1 209.616C363.08 209.536 364.06 209.455 365.04 209.405C365.83 209.365 366.62 209.346 367.41 209.336C367.62 209.336 367.83 209.336 368.04 209.336C369.11 209.046 370.19 208.776 371.27 208.576C373.75 208.126 375.88 208.205 377.53 208.415C378.07 208.355 378.56 208.285 379.06 208.215L385.89 207.445C388.13 206.555 390.53 206.086 392.95 206.066C393.02 206.056 393.1 206.035 393.17 206.025C394.14 205.865 395.12 205.745 396.09 205.645L396.82 205.566C397.74 205.446 398.65 205.385 399.55 205.375C401.11 205.025 402.67 204.825 404.07 204.875C404.35 204.835 404.63 204.795 404.9 204.765L405.72 204.655C407.18 204.465 408.63 204.285 410.09 204.175C411.74 203.705 413.17 203.515 414.02 203.415C416.08 202.605 418.51 202.045 421.37 202.035C426.56 201.925 431.53 203.966 435.12 207.616C435.27 207.716 435.42 207.805 435.57 207.905C440.74 211.345 443.84 217.095 443.94 223.225C444.05 223.885 444.14 224.545 444.19 225.225C444.46 229.005 443.57 232.725 441.72 235.935C440.93 237.875 439.82 239.725 438.4 241.405C433.88 246.825 427.28 249.965 419.87 250.175C419.61 250.205 419.2 250.286 418.79 250.346C417.52 250.546 416.25 250.726 414.97 250.826C413.49 250.946 411.96 250.995 410.44 251.035C409.85 251.045 409.26 251.056 408.68 251.086C406.57 251.186 404.5 251.325 402.44 251.455L400.85 251.576C399.4 251.696 397.96 251.796 396.51 251.846C395.39 251.866 394.27 251.815 393.16 251.725C392.78 251.775 392.42 251.816 392.07 251.846C391.4 251.906 390.74 251.935 390.05 251.925L389.51 251.995C388.05 252.185 386.58 252.375 385.11 252.475C383.73 252.575 382.28 252.615 380.83 252.635L379.16 252.675C377.95 252.725 376.72 252.785 375.49 252.895C374.84 252.955 374.25 253.026 373.66 253.096C372.26 253.266 370.87 253.415 369.47 253.505C367.94 253.595 366.44 253.645 364.94 253.695C363.79 253.735 362.64 253.766 361.49 253.836C361.03 253.866 360.57 253.945 360.1 254.005C359.06 254.145 358.02 254.275 356.97 254.375C355.41 254.515 353.83 254.575 352.23 254.625L351.6 254.645C349.81 254.695 348.06 254.735 346.31 254.735C345.55 254.735 344.58 254.765 343.42 254.705C342.27 254.845 341.09 254.875 339.93 254.806C339.11 254.925 338.29 255.006 337.47 255.086L335.86 255.275C334.8 255.415 333.73 255.555 332.66 255.655C331.55 255.755 330.5 255.796 329.45 255.826H329.39C326.94 256.256 324.47 256.315 322.05 255.975C321.65 256.015 321.26 256.046 320.86 256.076C320.2 256.236 319.46 256.375 318.67 256.485C317.61 256.635 316.63 256.685 315.8 256.695C314.02 257.005 312.23 257.075 310.44 256.885C308.22 257.195 306.4 257.155 305.22 257.135L304.64 257.185C303.79 257.305 302.94 257.415 302.08 257.495C299.98 257.685 297.86 257.865 295.74 257.945C294.33 258.005 292.96 257.965 291.59 257.895L290.34 257.846C288.72 258.136 287.05 258.426 285.36 258.616C282.85 258.896 280.72 258.675 279.31 258.445H279.01L277.62 258.545C276.52 258.615 275.42 258.685 274.32 258.715C273.27 258.745 272.25 258.725 271.27 258.665C270.14 258.885 268.53 259.126 266.82 259.086C265.64 259.086 264.46 259.005 263.27 258.925C263.11 258.915 262.95 258.895 262.78 258.885C261.56 259.065 260.51 259.195 259.46 259.235C258.26 259.285 257.03 259.265 255.78 259.205C255.61 259.225 255.44 259.235 255.27 259.255L254.55 259.316C252.93 259.456 251.29 259.595 249.66 259.695C248.7 259.755 247.84 259.745 247.11 259.695C246.41 259.765 245.73 259.816 245.06 259.826C244.11 259.836 243.21 259.825 242.3 259.795C241.95 259.795 241.59 259.755 241.25 259.775L240.9 259.816C240.08 259.896 239.26 259.975 238.44 260.015C236.87 260.085 235.32 260.125 233.78 260.165L232.68 260.195C231.74 260.245 230.79 260.196 229.84 260.086C227.7 260.286 225.86 260.196 224.53 260.086C223.85 260.136 223.19 260.155 222.43 260.135C222.09 260.155 221.75 260.165 221.41 260.175C220.38 260.285 219.33 260.315 218.27 260.245C216.81 260.465 215.34 260.666 213.87 260.826C211.58 261.056 209.49 260.985 207.63 260.685C205.65 260.845 203.68 260.985 201.7 261.015C200.18 261.015 198.76 260.925 197.29 260.775L196.68 260.715C196.5 260.595 195.91 260.765 195.42 260.795L192.81 260.915C192.81 260.915 192.76 260.915 192.74 260.915C189.75 261.725 186.63 261.795 183.63 261.135C182.89 261.245 182.04 261.326 181.11 261.356C179.79 261.386 178.46 261.355 177.11 261.285L170.89 261.076C169.57 261.026 168.31 260.955 166.87 261.045C166.03 261.095 165.18 261.145 164.34 261.165C163.4 261.185 162.45 261.166 161.49 261.116L155.16 261.135C154.47 261.135 153.78 261.116 153.1 261.086C152.04 261.216 150.61 261.305 148.96 261.185C148.51 261.155 148.06 261.125 147.55 261.135C145.65 261.235 143 261.355 139.9 260.915C139.57 260.895 139.04 260.915 138.53 260.915C136.17 261.165 134.05 261.155 131.83 261.015L131.16 260.975C129.17 261.155 127.21 261.096 125.24 260.816C124.46 260.876 123.58 260.905 122.61 260.875C121.69 260.965 120.66 260.995 119.51 260.935C118.6 260.885 117.67 260.785 116.73 260.665H116.71C114.94 260.825 113.17 260.955 111.4 260.965C109.07 260.965 106.66 260.916 104.3 260.846L99.6002 260.735C97.8902 260.695 96.2001 260.625 94.4601 260.655L94.17 260.695C93.14 260.825 92.1202 260.935 91.0902 260.975C89.5102 261.045 88.2302 260.946 87.3602 260.856C86.4002 260.906 85.3802 260.935 84.3702 260.895C83.5102 260.855 82.6401 260.775 81.7701 260.675C80.4701 260.895 78.0101 261.215 75.0301 260.755C74.0401 260.605 72.3301 260.625 70.5101 260.645C70.0901 260.665 69.6601 260.645 69.2501 260.645C69.2501 260.645 69.2501 260.665 69.2401 260.665C68.5701 261.615 68.1002 262.265 67.6002 262.895C67.3702 263.195 67.1202 263.485 66.8602 263.765C62.9902 268.675 57.2601 271.415 50.9601 271.415L50.9901 271.405ZM61.3002 268.035C61.3002 268.035 61.2901 268.035 61.2801 268.045C61.2801 268.045 61.3002 268.045 61.3002 268.035ZM35.15 265.056C35.15 265.056 35.16 265.056 35.17 265.066C35.17 265.066 35.16 265.065 35.15 265.056ZM190.93 261.005C190.93 261.005 190.89 261.005 190.88 261.005C190.89 261.005 190.91 261.005 190.93 261.005ZM131.77 260.925C131.77 260.925 131.7 260.925 131.67 260.925C131.7 260.925 131.74 260.925 131.77 260.925ZM118.19 260.326C118.41 260.376 118.64 260.425 118.85 260.465C118.63 260.415 118.41 260.376 118.19 260.326ZM129.77 260.125C129.77 260.125 129.72 260.135 129.7 260.145C129.72 260.145 129.75 260.145 129.77 260.125ZM316.41 255.975C316.47 255.975 316.52 255.985 316.58 255.995C316.52 255.995 316.47 255.995 316.41 255.975ZM332.08 255.225C331.97 255.255 331.86 255.286 331.75 255.326C331.86 255.296 331.97 255.265 332.08 255.225ZM33.67 240.505V240.525C33.67 240.525 33.67 240.515 33.67 240.505ZM21.3502 233.015C21.3502 233.065 21.3602 233.125 21.3702 233.175C21.3702 233.125 21.3602 233.065 21.3502 233.015ZM204.02 218.215C204.09 218.235 204.16 218.255 204.23 218.265C204.16 218.245 204.09 218.225 204.02 218.215ZM204.64 217.695C205.15 217.775 205.66 217.865 206.16 217.985C205.66 217.865 205.15 217.765 204.64 217.695ZM241.87 216.445C241.42 216.525 240.96 216.625 240.5 216.745C240.97 216.635 241.42 216.525 241.87 216.445ZM252.36 215.955C252.36 215.955 252.27 215.955 252.22 215.955C252.27 215.955 252.31 215.955 252.36 215.955ZM263.13 215.826C263.13 215.826 263.15 215.826 263.16 215.826C263.16 215.826 263.14 215.826 263.13 215.826ZM298.02 214.366C298.1 214.376 298.17 214.385 298.24 214.405C298.16 214.395 298.09 214.376 298.02 214.366ZM308.45 213.415C308.45 213.415 308.35 213.425 308.31 213.435C308.36 213.435 308.41 213.415 308.45 213.415ZM376.53 208.455C376.62 208.455 376.71 208.455 376.79 208.455C376.7 208.455 376.62 208.455 376.53 208.455ZM419.8 207.125C419.8 207.125 419.78 207.125 419.76 207.125C419.76 207.125 419.78 207.125 419.8 207.125ZM389.29 207.035H389.18C389.18 207.035 389.25 207.035 389.29 207.035Z" fill="#F6583B"/>
<path d="M220.12 189.45C219.87 188.36 219.59 187.28 219.38 186.19C219.31 185.82 219.34 185.37 219.5 185.04C219.95 184.14 220.07 183.34 219.36 182.48C219.13 182.2 219.22 181.63 219.24 181.19C219.27 180.28 219.37 179.38 219.38 178.47C219.39 177.46 219.33 176.44 219.31 175.43C219.3 174.86 219.31 174.29 219.31 173.55C220.02 172.88 220.02 172.68 219.09 172.06C219.32 170.94 220.31 172.41 220.66 171.56C220.51 171.49 220.37 171.4 220.22 171.36C219.3 171.09 219.04 170.62 219.02 169.67C219 168.7 218.81 167.73 218.73 166.76C218.71 166.51 218.77 166.19 218.93 166.01C219.3 165.6 219.35 165.33 218.83 165C218.69 164.91 218.68 164.51 218.72 164.27C219.01 162.74 218.91 161.21 218.72 159.68C218.57 158.55 218.46 157.41 218.37 156.27C218.35 156.08 218.51 155.88 218.53 155.68C218.57 155.16 218.78 154.75 218.39 154.11C217.96 153.43 218.16 152.34 218.13 151.43C218.13 151.36 218.48 151.29 218.66 151.2C218.84 151.11 219.01 151 219.32 150.81C217.59 150.23 217.95 148.81 217.75 147.71C217.53 146.45 217.52 145.14 217.44 143.86C217.36 142.57 216.79 141.24 217.8 140.04C217.86 139.96 217.69 139.63 217.57 139.47C217.22 139.04 216.88 138.65 217.4 138.32C217.37 137.77 217.34 137.32 217.3 136.69C217.22 136.21 217.07 135.53 217 134.84C216.86 133.32 216.73 131.81 216.64 130.29C216.58 129.34 216.64 128.38 216.59 127.43C216.53 126.38 216.4 125.32 216.31 124.27C216.23 123.33 216.16 122.38 216.13 121.44C216.13 121.31 216.4 121.17 216.29 121.05C216.14 120.22 215.82 119.39 215.87 118.57C215.99 116.74 215.78 114.97 215.49 113.18C215.22 111.51 215.26 109.8 215.11 108.11C215.02 107.16 214.75 106.22 214.68 105.27C214.6 104.21 214.68 103.13 214.62 102.06C214.54 100.42 214.41 98.7801 214.29 97.1401C214.2 95.8501 214.08 94.5603 214.01 93.2703C213.93 91.7003 213.99 90.1203 213.8 88.5703C213.63 87.2603 213.13 85.9902 212.89 84.6802C212.79 84.1302 213.05 83.5302 213.06 82.9502C213.07 81.9902 213.06 81.0303 212.96 80.0803C212.83 78.7103 212.6 77.3502 212.44 75.9802C212.26 74.4002 212.12 72.8202 211.95 71.2502C211.81 69.9902 211.64 68.7302 211.47 67.4802C211.45 67.3102 211.39 67.0902 211.27 67.0002C210.5 66.4602 210.7 65.8502 210.98 65.4602C210.75 64.5302 210.53 63.8103 210.41 63.0703C210.25 62.1003 210.17 61.1201 210.05 60.1501C209.95 59.3301 209.98 59.2402 210.81 58.7502C210.52 58.1102 210.17 57.4703 209.93 56.7903C209.67 56.0703 209.27 55.3003 209.86 54.8103C209.7 54.2003 209.57 53.7603 209.47 53.3103C209.38 52.9403 209.31 52.5602 209.26 52.1802C209.08 50.7302 208.86 49.2803 208.75 47.8303C208.66 46.5703 208.44 45.3404 208.1 44.1204C207.93 43.5204 207.91 42.8803 207.82 42.2603C207.63 40.9703 207.8 39.6002 206.81 38.5002C206.6 38.2702 206.69 37.7703 206.66 37.5503C206.98 37.3403 207.2 37.2003 207.44 37.0503C207.55 37.3003 207.66 37.6902 207.88 37.9902C208.01 38.1602 208.31 38.2103 208.54 38.3103C208.6 38.1103 208.73 37.9102 208.72 37.7102C208.63 36.3202 208.84 34.9904 209.42 34.1204C209.75 34.8204 210.02 35.4102 210.41 36.2402C210.68 36.0402 211.13 35.8703 211.21 35.5903C211.31 35.2303 211.1 34.7804 211.03 34.3704C211.11 34.3504 211.2 34.3303 211.28 34.3003C211.48 34.9603 211.68 35.6203 211.89 36.2803C211.98 36.2703 212.07 36.2502 212.15 36.2402C212.1 35.6702 212 35.0903 212.02 34.5203C212.02 34.2803 212.3 34.0503 212.45 33.8203C212.66 34.0603 212.99 34.2703 213.06 34.5503C213.18 35.0603 213.15 35.6101 213.19 36.1501C213.3 36.1701 213.41 36.1902 213.52 36.2202C213.66 36.0002 213.84 35.7903 213.94 35.5503C214.24 34.8303 214.65 34.7602 215.24 35.2502C216.73 36.4902 217.3 38.0402 217.35 39.9802C217.41 41.9602 217.89 43.9201 218.05 45.9001C218.21 47.7901 218.18 49.7003 218.27 51.5903C218.38 53.7603 218.52 55.9303 218.66 58.1003C218.77 59.8403 218.96 61.5703 219.01 63.3103C219.04 64.4003 218.81 65.4903 218.81 66.5803C218.81 67.3603 219.01 68.1302 219.08 68.9102C219.12 69.3802 219.03 69.8703 219.08 70.3403C219.27 72.0803 219.56 73.8103 219.69 75.5603C219.82 77.3503 219.78 79.1502 219.86 80.9502C219.92 82.4802 220.01 84.0103 220.14 85.5403C220.3 87.3803 220.6 89.2003 220.71 91.0403C220.87 93.6903 220.87 96.3603 221.04 99.0103C221.14 100.68 221.47 102.34 221.62 104.01C221.75 105.45 221.78 106.89 221.82 108.33C221.87 109.89 221.9 111.46 221.9 113.02C221.9 113.98 221.97 114.97 221.76 115.89C221.61 116.55 221.04 117.12 220.56 117.89C221.07 117.92 221.48 117.95 222.03 117.99C221.91 118.57 221.83 119.15 221.67 119.7C221.63 119.85 221.36 120.02 221.2 120.02C220.42 120.04 220.65 120.72 220.46 121.11C220.44 121.14 220.69 121.38 220.76 121.36C220.9 121.32 221.03 121.18 221.12 121.04C221.27 120.82 221.38 120.58 221.54 120.28C221.79 120.91 222.05 121.32 222.12 121.76C222.27 122.7 222.32 123.65 222.43 124.6C222.58 125.86 222.78 127.11 222.9 128.36C223 129.46 223 130.57 223.05 131.67C223.07 131.99 223.06 132.33 223.15 132.63C223.49 133.78 223.43 134.86 222.92 135.98C222.72 136.42 222.69 137.06 222.84 137.51C223.21 138.61 223.37 139.66 223.23 140.84C223.15 141.56 223.7 142.33 223.8 143.09C223.9 143.87 223.8 144.68 223.8 145.48C223.8 145.71 223.82 145.96 223.92 146.16C224.27 146.92 224.22 147.51 223.25 147.82C223.71 148.4 224.55 148.93 223.56 149.5C223.71 149.82 223.86 150.06 223.95 150.32C224.49 151.97 224.19 153.68 224.29 155.36C224.36 156.54 224.61 157.71 224.71 158.89C224.87 160.71 225.03 162.54 225.1 164.36C225.15 165.53 225.04 166.71 225 167.89C225 168.17 224.97 168.45 224.96 168.81C223.61 167.83 223.53 166.96 223.98 165.52C224.22 164.73 223.86 163.76 223.76 162.87C223.62 162.88 223.47 162.89 223.33 162.9C223.33 165.45 223.33 167.99 223.33 170.63C223.19 170.69 222.96 170.78 222.72 170.88C223.05 171.13 223.35 171.36 223.71 171.64C223.83 171.19 223.94 170.76 224.05 170.32C224.35 170.46 224.64 170.61 225 170.78C225.29 172.48 225.66 174.28 225.86 176.09C225.94 176.81 225.62 177.57 225.58 178.32C225.53 179.23 225.56 180.14 225.6 181.04C225.67 182.53 225.8 184.01 225.84 185.5C225.86 186.35 225.83 187.22 225.68 188.05C225.63 188.35 225.42 189.03 224.72 188.53C224.58 188.43 224.17 188.71 223.75 188.87C224 189.7 224.23 190.47 224.51 191.42C224.91 190.78 225.16 190.37 225.42 189.96L225.79 190.07C225.94 190.83 226.2 191.6 226.2 192.36C226.19 194 225.96 195.63 225.97 197.27C225.97 198.4 226.32 199.53 226.37 200.67C226.42 201.86 226.29 203.05 226.27 204.24C226.27 204.68 226.39 205.12 226.43 205.56C226.58 207.29 226.73 209.03 226.83 210.76C226.86 211.28 226.67 211.82 226.69 212.34C226.72 213.08 226.9 213.83 226.92 214.57C226.94 215.88 226.85 217.19 226.88 218.5C226.91 219.58 227.08 220.65 227.13 221.73C227.21 223.58 227.25 225.43 227.3 227.28C227.3 227.4 227.33 227.55 227.27 227.64C226.45 228.78 227.12 229.91 227.25 231.06C227.36 232.04 227.27 233.05 227.19 234.04C227.17 234.24 226.77 234.41 226.49 234.63C227.82 235.59 226.93 237.04 227.33 238.21C227.36 238.29 226.98 238.51 226.79 238.66C226.69 238.45 226.5 238.25 226.5 238.04C226.5 237.69 226.68 237.34 226.67 236.99C226.67 236.77 226.44 236.55 226.32 236.33C226.21 236.36 226.11 236.4 226 236.43C226.05 237.53 226.1 238.64 226.17 239.99C226.59 239.59 226.8 239.4 227.03 239.17C227.49 239.65 227.46 240.08 227.22 240.65C227.04 241.1 227.1 241.66 227.13 242.17C227.15 242.42 227.39 242.66 227.43 242.91C227.65 244.39 227.88 245.87 228.03 247.36C228.12 248.23 228.18 249.13 227.42 249.71C227.54 250.56 227.7 251.35 227.76 252.14C227.91 254.03 228.09 255.92 228.11 257.81C228.13 259.21 227.85 260.62 227.82 262.02C227.79 263.39 227.92 264.76 227.98 266.13C228.04 267.5 228.06 268.88 228.2 270.24C228.25 270.73 228.56 271.19 228.69 271.52C228.49 271.92 228.23 272.22 228.21 272.53C228.12 273.78 228.05 275.04 228.09 276.3C228.12 277.13 228.44 277.96 228.47 278.79C228.51 279.99 228.4 281.2 228.36 282.41C228.32 283.51 228.31 284.61 228.27 285.71C228.21 287.55 228.1 289.39 228.09 291.23C228.09 292.61 228.24 294 228.27 295.38C228.29 296.31 228.19 297.25 228.19 298.18C228.19 300.16 228.23 302.14 228.23 304.12C228.23 305.17 228.15 306.22 228.16 307.26C228.16 307.79 228.38 308.33 228.34 308.86C228.24 310.11 228.2 311.34 228.26 312.61C228.33 313.96 228.4 315.36 228.2 316.75C228 318.13 228.02 319.55 228.03 320.96C228.03 322.08 228.24 323.19 228.24 324.31C228.24 326.08 227.95 327.86 228.14 329.6C228.28 330.89 228.07 332.01 227.66 333.16C227.59 333.36 227.69 333.64 227.73 333.87C227.92 334.9 228.12 335.92 227.88 337C227.76 337.52 228.11 338.12 228.08 338.68C228.02 339.75 227.83 340.82 227.71 341.89C227.69 342.06 227.7 342.24 227.71 342.42C227.84 344.27 228.08 346.12 228.09 347.97C228.1 351.11 227.97 354.24 227.9 357.38C227.85 360.04 227.76 362.7 227.78 365.35C227.78 366.59 228.06 367.83 228.12 369.07C228.15 369.81 227.96 370.55 227.95 371.29C227.94 372.21 228.07 373.13 228.03 374.04C227.98 375.18 227.76 376.32 227.72 377.46C227.69 378.26 227.86 379.08 227.94 379.88C227.99 380.38 228.16 380.89 228.09 381.37C227.69 383.96 227.73 386.57 227.76 389.18C227.77 390.41 227.55 391.64 227.54 392.87C227.54 394.17 227.64 395.47 227.71 396.76C227.8 398.44 227.84 400.13 228.01 401.8C228.18 403.52 229.06 404.04 230.8 403.77C231.61 403.65 232.46 403.7 233.28 403.8C233.65 403.85 234 404.18 234.34 404.41C234.85 404.74 235.35 405.09 235.85 405.44C236.25 405.72 236.66 406 237.05 406.31C237.19 406.42 237.23 406.68 237.37 406.74C238.78 407.32 238.63 408.47 238.31 409.57C238.13 410.17 237.75 410.77 237.32 411.23C235.74 412.89 235.48 415.06 234.9 417.12C234.72 417.78 234.21 418.34 233.98 419C233.58 420.18 233.26 421.4 232.93 422.61C232.58 423.9 232.26 425.19 231.93 426.48C231.83 426.86 231.7 427.23 231.63 427.61C231.46 428.55 231.33 429.49 231.15 430.43C230.98 431.33 230.86 432.26 230.54 433.1C230.07 434.31 229.47 435.47 228.85 436.62C228.69 436.92 228.24 437.08 227.92 437.29C227.49 437.58 227.08 437.95 226.6 438.12C225.07 438.66 223.52 439.16 221.95 439.58C221.45 439.71 220.88 439.57 220.34 439.54C219.83 439.52 219.33 439.51 218.82 439.45C218.54 439.42 218.18 439.39 218 439.22C216.75 437.96 215.51 436.69 214.34 435.36C214.02 435 213.83 434.45 213.74 433.95C213.45 432.22 213.16 430.48 213 428.73C212.84 427.01 212.81 425.27 212.8 423.54C212.8 422.98 212.88 422.32 213.18 421.89C214.02 420.66 214.93 419.52 216.62 419.32C217.64 419.2 218.63 418.74 219.63 418.41C220.25 418.2 220.3 417.71 220.37 417.11C220.56 415.47 219.56 414.71 218.36 413.97C218 413.75 217.75 413.14 217.71 412.69C217.65 412 217.51 411.54 216.87 411.13C215.83 410.47 215.94 409.97 217.04 409.34C216.86 408.67 216.74 408 216.49 407.39C216.22 406.74 216.54 406.42 217 406.12C217.43 405.85 217.87 405.56 218.34 405.36C219.22 404.99 219.32 404.25 219.35 403.45C219.36 403.09 219.38 402.73 219.41 402.38C219.52 401.15 219.66 399.92 219.73 398.69C219.81 397.26 219.82 395.82 219.87 394.39C219.94 392.28 220.01 390.18 220.09 388.07C220.1 387.68 220.21 387.27 220.13 386.9C220.07 386.58 219.79 386.32 219.63 386.01C219.45 385.64 219.2 385.27 219.16 384.89C219.12 384.45 219.12 383.88 219.96 383.86C220.01 384.43 220.06 384.98 220.12 385.53C220.18 385.54 220.24 385.55 220.29 385.57C220.33 385.41 220.41 385.25 220.42 385.09C220.46 382.78 220.5 380.47 220.5 378.17C220.5 377.17 220.38 376.16 220.4 375.16C220.4 374.78 220.65 374.4 220.81 373.96C220.18 372.99 220.62 371.85 220.71 370.75C220.77 370.02 221.14 369.32 221.25 368.58C221.29 368.3 221 367.97 220.91 367.77C220.98 366.88 221.09 366.06 221.11 365.23C221.16 362.91 221.18 360.6 221.22 358.28C221.24 357.1 221.26 355.93 221.29 354.75C221.36 351.77 221.45 348.79 221.52 345.8C221.54 344.66 221.49 343.51 221.52 342.37C221.56 340.78 221.65 339.19 221.69 337.6C221.73 335.91 221.7 334.21 221.78 332.52C221.84 331.26 222.07 330.02 222.15 328.76C222.19 328.12 222.02 327.47 222.04 326.82C222.04 326.46 222.24 326.1 222.18 325.79C222.08 325.19 221.91 324.59 221.88 323.98C221.81 322.55 221.8 321.12 221.79 319.69C221.79 319.36 221.79 318.99 221.93 318.71C222.24 318.11 222.28 317.57 221.9 317C221.84 316.91 221.77 316.72 221.82 316.66C222.84 315.26 221.67 313.6 222.36 312.17C221.83 309.8 222.4 307.41 222.28 305.04C222.27 304.77 221.84 304.53 221.8 304.24C221.75 303.89 221.94 303.51 221.96 303.14C222.01 302.03 222.02 300.92 222.05 299.81C222.05 299.73 222.19 299.63 222.17 299.58C221.8 298.57 222.42 297.54 221.99 296.47C221.5 295.25 221.57 293.96 222.21 292.72C222.57 292.02 222.58 291.34 222.26 290.49C221.88 289.48 221.98 288.28 221.91 287.16C221.91 287.1 222.33 287.02 222.66 286.92C222.51 286.59 222.38 286.19 222.16 285.85C221.65 285.05 221.56 284.25 222.04 283.4C222.18 283.15 222.32 282.83 222.28 282.57C222.1 281.35 222.57 280.8 223.8 280.86C224.01 280.87 224.22 280.88 224.44 280.8C223.71 280.76 223.04 279.49 222.19 280.74C222.24 279.48 221.45 278.24 222.46 277.08C222.57 276.96 222.58 276.6 222.48 276.46C221.93 275.71 222.41 275 222.37 274.28C222.45 274.26 222.53 274.24 222.61 274.22C222.83 274.52 223.05 274.82 223.26 275.12C224.05 274.47 224.15 273.2 223.51 271.94C223.17 272.5 222.83 273.06 222.47 273.65C221.85 272.97 221.8 272.37 221.87 271.55C222.02 269.86 221.81 268.14 221.75 266.43C221.75 266.22 221.68 265.98 221.75 265.8C222.4 264.23 221.87 262.58 222.1 260.98C222.16 260.56 222.16 260.14 222.28 259.7C222.39 259.29 222.12 258.8 222.08 258.34C222.05 257.97 222.06 257.57 222.14 257.21C222.23 256.79 222.4 256.44 221.89 256.13C221.75 256.04 221.86 255.58 221.8 255.3C221.46 253.68 221.75 252.07 221.77 250.46C221.79 249.05 221.64 247.64 221.57 246.23C221.48 244.52 221.38 242.81 221.33 241.1C221.33 240.93 221.58 240.66 221.76 240.6C222.1 240.49 222.47 240.5 222.95 240.44V243.69C223.84 242.04 223.79 239.57 222.87 238.53C222.8 239.03 222.74 239.42 222.69 239.8C222.41 239.8 222.12 239.8 221.84 239.8C221.17 239.8 220.95 239.31 220.97 238.78C220.98 238.41 221.14 237.96 221.39 237.71C222.06 237.05 222.1 236.55 221.48 236.28C221.35 235.46 221.3 234.85 221.15 234.27C221.02 233.77 221.08 233.5 221.93 233.67C221.64 232.96 221.36 232.43 221.21 231.87C221.09 231.43 221.07 230.94 221.09 230.48C221.12 229.88 221.24 229.29 221.29 228.69C221.3 228.55 221.14 228.41 221.08 228.25C220.87 227.7 220.68 227.15 221.54 226.91C221.3 226.12 221.04 225.33 220.81 224.53C220.64 223.92 220.83 223.5 221.48 223.5C221.19 222.6 220.59 221.71 220.69 220.9C220.92 219.11 220.21 217.4 220.48 215.64C220.56 215.12 220.87 214.56 220.76 214.1C220.5 213.1 221.35 212.07 220.93 211.31C220.33 210.2 221 209.26 220.88 208.26C220.78 207.39 220.58 206.52 220.52 205.64C220.43 204.32 219.83 203.01 220.62 201.67C220.83 201.31 220.93 200.67 220.36 200.13C220.06 199.85 220.21 199.02 220.28 198.46C220.32 198.15 220.37 197.92 220.32 197.57C220.1 196.03 219.97 194.47 219.97 192.91C219.97 192.43 220.47 191.95 220.65 191.62C221.1 191.62 221.62 191.65 221.62 191.62C221.67 191.18 221.66 190.72 221.66 190.27C221.57 190.35 221.47 190.43 221.38 190.52C220.85 190.34 220.31 190.16 219.78 189.98C219.9 189.77 220.02 189.57 220.14 189.36C220.28 189.73 220.39 189.88 220.91 189.69C221.87 189.34 221.41 188.73 221.44 188.07C220.94 188.56 220.53 188.98 220.12 189.39V189.45ZM225.45 233.99C225.57 234.03 225.68 234.06 225.8 234.1C226.25 233.65 226.78 233.3 226.62 232.45C226.33 231 226.15 229.52 225.91 227.98C225.62 228.08 225.41 228.15 225.19 228.23C225.92 229.4 225.99 230.22 225.7 231.56C225.53 232.35 225.53 233.19 225.45 234V233.99ZM220.18 161.35C220.29 161.35 220.4 161.33 220.51 161.33C220.46 159.59 220.42 157.85 220.35 156.12C220.35 156.02 220.09 155.93 219.95 155.84C219.88 155.98 219.74 156.12 219.75 156.26C219.78 157.03 219.87 157.79 219.91 158.56C219.94 159.17 220.1 159.86 219.88 160.37C219.63 160.96 219.91 161.1 220.19 161.36L220.18 161.35ZM221.74 201.13C221.62 201.34 221.54 201.41 221.54 201.48C221.59 202.8 221.62 204.13 221.72 205.45C221.74 205.67 221.97 205.9 222.16 206.06C222.23 206.12 222.58 206.04 222.6 205.96C222.67 205.72 222.74 205.4 222.63 205.22C222.43 204.88 222.13 204.62 222.52 204.21C222.62 204.1 222.67 203.85 222.62 203.7C222.37 202.88 222.08 202.07 221.75 201.13H221.74ZM218.81 134.28C219.22 133.95 219.51 133.41 219.19 132.69C219.11 132.52 218.92 132.41 218.78 132.27C218.65 132.42 218.47 132.54 218.4 132.72C217.86 134.08 218.44 135.42 218.52 136.77C218.52 136.83 218.68 136.89 218.94 137.07C218.89 136.09 218.86 135.29 218.81 134.28ZM222.86 233C223.86 232.11 223.81 231.2 222.75 230.09C221.89 231.03 221.9 231.5 222.86 233ZM219.68 168.4C220.51 168.93 220.63 168.79 221.04 166.47C220.7 166.31 220.35 166.13 219.97 165.95C219.87 166.79 219.79 167.53 219.68 168.4ZM220.4 132.2C220.4 132.31 220.4 132.41 220.39 132.52C220.64 132.65 220.88 132.78 221.16 132.92C221.12 133.49 221.07 134.06 221.05 134.63C221.05 134.76 221.14 134.99 221.22 135C221.37 135.03 221.67 134.97 221.7 134.89C221.79 134.57 221.83 134.22 221.84 133.88C221.84 133.63 221.75 133.38 221.72 133.13C221.68 132.74 221.65 132.34 221.62 131.95C221.21 132.04 220.81 132.12 220.4 132.21V132.2ZM220.93 172.27C220.61 172.47 220.09 172.64 220.08 172.84C220.04 173.61 220.15 174.39 220.21 175.16C221.18 174.34 221.2 173.4 220.93 172.27ZM225.41 202.78C224.42 203.63 224.39 204.96 225.3 205.55C225.82 204.67 226.02 203.8 225.41 202.78ZM216.93 116.62C217.143 118.194 217.43 119.074 217.79 119.26C217.86 118.87 217.93 118.46 218.01 117.97C217.43 117.85 218.27 116.41 216.93 116.62ZM225.89 219.25C225.78 219.25 225.68 219.26 225.57 219.27V222.89C225.69 222.91 225.8 222.94 225.92 222.96C226.02 222.64 226.18 222.33 226.2 222C226.23 221.57 226.15 221.14 226.1 220.71C226.04 220.22 225.96 219.73 225.89 219.24V219.25ZM223.13 250.01C223.13 251.44 223.13 252.87 223.13 254.31C223.28 254.31 223.44 254.31 223.59 254.3C223.44 252.87 223.89 251.43 223.13 250.02V250.01ZM226.46 258.41C227.31 257.19 226.7 255.98 226.62 254.79C226.23 255.96 226.05 257.15 226.46 258.41ZM222.69 221.18C222.79 221.16 222.88 221.15 222.98 221.13C223.02 220.76 223.11 220.38 223.09 220.01C223.07 219.67 223.04 219.22 222.83 219.05C222.63 218.89 222.19 219.05 221.91 219.06C222.22 219.9 222.45 220.54 222.69 221.17V221.18ZM223.34 290.1C223.34 290.75 223.36 291.2 223.34 291.65C223.31 292.2 223.26 292.75 223.21 293.29C223.3 293.29 223.39 293.3 223.48 293.31C223.61 292.86 223.67 292.39 223.88 291.98C224.26 291.26 224.04 290.74 223.34 290.1ZM221.92 136.07C221.63 136.74 221.35 137.37 221.07 138.02C222.33 138.19 222.68 137.63 221.92 136.07ZM222.42 226.26C222.59 226.26 222.75 226.26 222.92 226.27C222.97 225.62 223.02 224.96 223.04 224.31C223.04 224.22 222.86 224.05 222.76 224.05C222.64 224.05 222.44 224.19 222.43 224.28C222.4 224.94 222.41 225.6 222.41 226.26H222.42ZM217.24 119.9C217.43 120.78 217.58 121.48 217.73 122.17C217.82 122.17 217.92 122.17 218.01 122.17C218.09 121.54 218.17 120.91 218.26 120.12C218.03 120.07 217.68 120 217.24 119.91V119.9ZM221.08 176.71C220.95 176.71 220.81 176.71 220.68 176.71C220.91 177.51 219.73 178.3 220.95 179.33C221 178.31 221.04 177.51 221.08 176.71ZM225.72 215.63C225.61 215.63 225.49 215.65 225.38 215.66C225.42 216.38 225.46 217.1 225.49 217.82C225.62 217.82 225.75 217.81 225.88 217.8C225.33 217.09 226.68 216.32 225.72 215.63ZM223.49 257.72C223.41 257.72 223.33 257.74 223.25 257.74C222.88 258.75 222.95 259.26 223.71 259.94C223.63 259.08 223.56 258.4 223.49 257.72ZM220.46 127.05C221.52 126.4 221.56 126.04 220.98 124.87C220.82 125.54 220.67 126.18 220.46 127.05ZM221.68 200.22C221.83 200.21 221.97 200.2 222.12 200.19C221.97 199.4 221.83 198.62 221.68 197.83L221.36 197.89C221.47 198.67 221.57 199.45 221.68 200.22ZM223.08 256.83C223.19 256.83 223.3 256.84 223.41 256.85C223.52 256.19 223.63 255.53 223.74 254.87C223.57 254.85 223.4 254.83 223.23 254.82C223.18 255.49 223.14 256.16 223.09 256.83H223.08ZM223.28 174.07C223.43 174.69 223.55 175.18 223.67 175.66C223.77 175.63 223.87 175.61 223.97 175.58C223.72 175.14 224.72 174.27 223.29 174.07H223.28ZM222.75 154.7L222.22 154.82C222.34 155.24 222.46 155.65 222.58 156.07C222.73 156.03 222.88 155.99 223.03 155.95C222.94 155.53 222.84 155.12 222.75 154.7ZM221.66 139.94C221.62 140.52 221.58 140.85 221.58 141.17C221.58 141.3 221.63 141.43 221.7 141.54C221.72 141.57 221.93 141.55 221.94 141.53C222.03 141.17 222.14 140.8 222.14 140.43C222.14 140.29 221.87 140.14 221.67 139.94H221.66ZM220.32 161.89C220.21 161.9 220.1 161.91 219.99 161.93C220.05 162.65 220.11 163.37 220.18 164.08L220.48 164.04C220.43 163.32 220.38 162.6 220.33 161.88L220.32 161.89ZM223.49 285.54C223.36 285.57 223.22 285.61 223.09 285.64C223.2 286.11 223.31 286.58 223.42 287.05C223.56 287.02 223.69 286.98 223.83 286.95C223.72 286.48 223.6 286.01 223.49 285.55V285.54ZM222.34 216.4C223.01 215.93 223 215.4 222.34 214.64V216.4Z" fill="#F6583B"/>
<path d="M221.42 458.417C220.43 458.417 219.63 458.347 219.09 458.287C218.2 458.247 217.5 458.207 216.79 458.127C210.83 457.487 206.95 454.717 204.74 452.507C203.19 450.947 201.71 449.417 200.3 447.827C197.67 444.857 195.92 441.137 195.24 437.057C194.87 434.907 194.53 432.687 194.32 430.467C194.12 428.207 194.06 425.967 194.04 423.717C194 419.327 195.18 415.177 197.44 411.707C197.4 411.107 197.38 410.517 197.39 409.907C197.4 409.247 197.46 408.387 197.61 407.397C197.55 403.367 198.75 399.377 201.05 396.007C201.05 395.807 201.05 395.617 201.06 395.417L201.22 390.507C200.9 389.437 200.64 388.237 200.5 386.887C200.15 383.177 200.75 380.067 201.69 377.587C201.64 376.667 201.61 375.747 201.63 374.827C201.63 374.247 201.67 373.687 201.73 373.147C201.7 371.717 201.81 370.247 202.04 368.727C202.07 368.487 202.09 368.257 202.13 368.027C202.13 367.427 202.14 366.837 202.19 366.237L202.34 364.577L202.73 345.417V344.367C202.72 343.557 202.71 342.747 202.73 341.937L202.92 335.497C202.93 334.207 202.95 332.917 203.01 331.627C203.06 330.577 203.17 329.507 203.29 328.437C203.25 327.787 203.23 327.167 203.24 326.537C203.18 326.017 203.13 325.507 203.1 324.987C203.02 323.177 202.99 321.507 202.99 319.837C202.99 319.397 202.97 318.577 203.07 317.487C203.02 316.167 203.11 314.837 203.33 313.537C203.33 312.977 203.33 312.357 203.39 311.697C203.31 310.307 203.33 309.057 203.38 308.017C203.29 307.587 203.22 307.147 203.16 306.707C202.85 304.527 203 302.577 203.21 301.167L203.26 299.437V299.387C203.26 299.257 203.26 299.127 203.26 299.007C202.77 296.277 202.77 293.487 203.26 290.747C203.18 289.787 203.16 288.987 203.15 288.417C203.12 288.027 203.1 287.627 203.1 287.227C202.82 285.067 202.88 282.887 203.28 280.737C203.11 278.917 203.16 277.237 203.36 275.697C203.07 273.947 202.97 272.037 203.16 269.937C203.14 269.907 203.1 269.497 203.08 269.087C203.05 268.607 203.03 268.127 203 267.647C202.87 265.877 202.96 264.147 203.27 262.467C203.27 261.697 203.27 260.797 203.36 259.817C203.34 259.517 203.32 259.217 203.31 258.917C203.23 258.427 203.16 257.947 203.12 257.457C202.72 254.587 202.87 252.227 202.96 250.717L203 250.147C203 249.787 202.95 249.317 202.92 248.847L202.76 246.087C202.71 245.027 202.65 243.977 202.61 242.917C202.29 241.377 202.16 239.777 202.22 238.157C202.24 237.347 202.32 236.537 202.44 235.737C202.35 234.737 202.34 233.747 202.4 232.767C202.34 232.007 202.31 231.247 202.32 230.477C202.12 229.147 202.08 227.877 202.14 226.687C201.98 225.457 201.94 224.217 202.01 222.987C201.93 222.177 201.9 221.317 201.93 220.407C201.7 218.537 201.46 215.917 201.95 212.767C201.95 212.687 201.97 212.607 201.99 212.527C201.99 212.417 202 212.297 202.01 212.177C201.91 211.047 201.91 209.897 201.99 208.727C201.94 208.347 201.9 207.977 201.86 207.617C201.64 206.347 201.32 204.137 201.54 201.417C201.44 200.367 201.42 199.247 201.49 198.067C201.32 196.337 201.22 194.647 201.22 192.987C201.22 192.867 201.22 192.757 201.22 192.637C201.1 191.767 201.03 190.907 201.03 190.037C201 189.877 200.97 189.717 200.94 189.547C200.63 187.867 200.53 186.147 200.63 184.457C200.47 183.187 200.41 181.817 200.5 180.347C200.5 179.917 200.55 179.267 200.6 178.597L200.64 178.067L200.57 175.737C200.57 175.487 200.57 175.197 200.56 174.877C200.39 173.737 200.31 172.567 200.35 171.387C200.33 171.097 200.31 170.797 200.3 170.507C200.18 169.497 200.1 168.817 200.05 168.127C199.97 167.287 199.95 166.447 199.99 165.597C199.92 164.407 199.96 163.187 200.12 161.967C199.93 160.427 199.81 159.157 199.69 157.867C199.64 157.367 199.62 156.847 199.62 156.327C199.33 154.437 199.34 152.867 199.36 151.857C199.27 151.287 199.2 150.687 199.15 150.077C198.89 148.327 198.82 146.837 198.77 145.717L198.75 145.417C198.53 143.797 198.45 142.227 198.51 140.717C198.37 139.477 198.36 138.347 198.43 137.367C198.39 137.087 198.36 136.807 198.34 136.527C198.18 134.827 198.03 133.067 197.93 131.297C197.88 130.467 197.87 129.607 197.88 128.757C197.86 127.977 197.82 127.597 197.78 127.227L197.64 125.757C197.54 124.587 197.45 123.417 197.41 122.237C197.19 120.897 197.05 119.247 197.17 117.357C197.17 116.997 197.07 116.577 197 116.137C196.72 114.427 196.59 112.657 196.51 110.877C196.5 110.617 196.49 110.367 196.47 110.117C196.24 108.847 196.08 107.787 195.99 106.737C195.9 105.567 195.88 104.467 195.89 103.357V102.827C195.84 101.887 195.76 100.827 195.68 99.7671L195.49 97.1971C195.41 96.1971 195.33 95.2071 195.28 94.2071C195.24 93.4171 195.22 92.6372 195.21 91.8472C195.21 91.6372 195.21 91.4271 195.21 91.2171C194.91 90.1471 194.64 89.0671 194.45 87.9771C194.01 85.4571 194.09 83.3471 194.3 81.7071C194.25 81.2371 194.18 80.7571 194.11 80.2771C194 79.5271 193.9 78.7671 193.82 78.0171L193.33 73.2872V73.147C192.55 71.187 192.1 69.087 192.01 66.927C192.01 66.777 192 66.6171 191.99 66.4671C191.97 66.3271 191.94 66.1872 191.92 66.0372C191.76 65.0772 191.65 64.117 191.54 63.147L191.46 62.417C191.34 61.467 191.28 60.5272 191.27 59.6072C190.96 58.1472 190.81 56.737 190.8 55.377C190.75 55.037 190.69 54.6772 190.65 54.3272L190.53 53.377C190.34 51.947 190.16 50.5172 190.06 49.0872C189.59 47.4572 189.4 46.057 189.3 45.177C188.5 43.167 187.96 40.7972 187.93 38.0472C187.77 32.8072 189.81 27.7672 193.51 24.1172C193.6 23.9672 193.7 23.8271 193.79 23.6871C197.23 18.5071 202.99 15.3972 209.13 15.2972C209.75 15.1872 210.38 15.1072 211.02 15.0572C214.81 14.7572 218.57 15.6471 221.8 17.5071C223.73 18.2871 225.56 19.3771 227.23 20.7771C232.73 25.3771 235.86 31.977 236.07 39.377C236.1 39.647 236.18 40.0671 236.24 40.4871C236.43 41.7271 236.61 42.9771 236.71 44.2271C236.84 45.7971 236.88 47.3172 236.92 48.8372L236.97 50.6072C237.05 52.2872 237.16 53.967 237.27 55.647L237.46 58.2972C237.58 59.7772 237.69 61.2571 237.73 62.7371C237.76 63.8171 237.71 64.9472 237.61 66.0872C237.66 66.4672 237.7 66.8271 237.73 67.1871C237.79 67.8671 237.81 68.5371 237.81 69.2171L237.89 69.8472C238.08 71.2672 238.25 72.6872 238.36 74.1072C238.47 75.5372 238.5 76.9871 238.52 78.4371L238.56 80.1072C238.61 81.3472 238.67 82.5972 238.78 83.8372C238.83 84.3572 238.89 84.9271 238.97 85.5071C239.14 86.9471 239.3 88.3972 239.39 89.8472C239.48 91.3272 239.53 92.8472 239.58 94.3672C239.62 95.5072 239.65 96.6371 239.72 97.7771C239.75 98.2271 239.83 98.697 239.89 99.167C240.03 100.207 240.16 101.257 240.26 102.307C240.41 103.917 240.46 105.577 240.51 107.227V107.727C240.58 109.407 240.61 111.147 240.62 112.897C240.62 113.677 240.65 114.617 240.59 115.697C240.74 116.907 240.78 118.127 240.69 119.357C240.8 120.177 240.89 120.967 240.96 121.747L241.15 123.357C241.3 124.457 241.44 125.557 241.54 126.657C241.63 127.647 241.68 128.707 241.71 129.777C242.17 132.247 242.21 134.757 241.86 137.237C241.9 137.617 241.93 137.997 241.96 138.387C242.12 139.047 242.26 139.797 242.37 140.597C242.52 141.737 242.57 142.747 242.57 143.587C242.86 145.317 242.93 147.037 242.76 148.737C243.06 150.927 243.03 152.787 243.01 153.987L243.06 154.607C243.18 155.457 243.29 156.307 243.37 157.147C243.56 159.257 243.74 161.407 243.82 163.537C243.87 164.897 243.83 166.317 243.76 167.737L243.71 168.887V168.937C244.01 170.557 244.3 172.227 244.49 173.907C244.77 176.397 244.55 178.507 244.32 179.907C244.32 179.977 244.32 180.047 244.33 180.127L244.42 181.617C244.49 182.717 244.56 183.817 244.58 184.917C244.62 185.927 244.6 186.947 244.53 187.957C244.75 189.077 244.96 190.627 244.95 192.417C244.95 193.607 244.87 194.797 244.79 195.997C244.79 196.157 244.77 196.307 244.75 196.457C244.93 197.647 245.05 198.677 245.1 199.697C245.15 201.007 245.13 202.227 245.07 203.437C245.09 203.607 245.11 203.767 245.12 203.937L245.18 204.667C245.32 206.317 245.46 207.967 245.56 209.607C245.62 210.527 245.61 211.377 245.56 212.137C245.63 212.837 245.67 213.487 245.68 214.147C245.7 215.067 245.68 215.977 245.66 216.877C245.66 217.237 245.63 217.597 245.64 217.957L245.68 218.307C245.76 219.157 245.84 220.007 245.87 220.857C245.93 222.247 245.97 223.667 246.01 225.107L246.05 226.637C246.05 226.687 246.05 226.737 246.05 226.787C246.07 227.657 246.03 228.517 245.94 229.387C246.14 231.507 246.05 233.357 245.94 234.677C245.99 235.347 246 236.047 245.99 236.767C246.01 237.127 246.03 237.497 246.03 237.857C246.14 238.877 246.16 239.917 246.1 240.947C246.31 242.357 246.52 243.847 246.68 245.347C246.9 247.617 246.83 249.667 246.53 251.517C246.69 253.517 246.84 255.517 246.87 257.527C246.89 258.977 246.78 260.447 246.63 261.927L246.57 262.537C246.57 262.807 246.62 263.297 246.64 263.767L246.77 266.467C247.59 269.457 247.66 272.587 246.99 275.587C247.1 276.327 247.18 277.167 247.21 278.107C247.26 279.447 247.21 280.817 247.13 282.187L246.92 288.337C246.88 289.307 246.83 290.287 246.83 291.257C246.83 291.597 246.87 291.967 246.89 292.337C246.94 293.187 246.99 294.027 247.01 294.877C247.03 295.857 247.01 296.787 246.96 297.707L246.98 304.087C246.98 304.727 246.96 305.407 246.94 306.087C247.07 307.167 247.16 308.617 247.03 310.257C246.99 310.717 246.97 311.147 246.99 311.597C247.08 313.567 247.21 316.227 246.77 319.317C246.76 319.637 246.77 320.167 246.78 320.677C246.91 321.917 247 323.077 247 324.237C247 325.287 246.95 326.347 246.88 327.407L246.84 328.067C247.01 330.067 246.96 332.047 246.68 334.017C246.74 334.797 246.77 335.647 246.74 336.557C246.83 337.497 246.87 338.547 246.8 339.697C246.75 340.607 246.65 341.537 246.53 342.487C246.69 344.277 246.82 346.067 246.83 347.857C246.83 350.137 246.78 352.457 246.72 354.767L246.6 359.607C246.56 361.317 246.52 363.037 246.52 364.747L246.55 365.037C246.68 366.077 246.79 367.127 246.83 368.177C246.9 369.647 246.8 370.947 246.71 371.827C246.77 372.787 246.8 373.807 246.75 374.817C246.71 375.677 246.63 376.547 246.53 377.417C246.75 378.717 247.07 381.177 246.61 384.157C246.46 385.147 246.48 386.867 246.5 388.677C246.5 389.117 246.5 389.537 246.5 389.947C246.53 389.967 246.56 389.987 246.59 390.007C247.22 390.437 247.95 390.967 248.67 391.527C249.16 391.907 249.63 392.327 250.08 392.767C256.32 398.017 258.78 406.277 256.32 414.737C255.62 417.097 254.55 419.307 253.18 421.307C253.11 421.577 253.04 421.847 252.96 422.107C252.51 423.737 251.91 425.097 251.4 426.087C251.3 426.437 251.21 426.787 251.12 427.147L250.09 431.107C250.07 431.187 250.04 431.327 249.99 431.467L249.94 431.787C249.83 432.517 249.7 433.247 249.56 433.957C249.3 435.417 248.95 437.407 248.05 439.747C247.15 442.087 246.11 444.067 245.31 445.527C243.65 448.557 241.25 451.047 238.17 452.937C236.82 453.887 235.07 454.957 232.69 455.777C230.89 456.417 228.9 457.047 226.89 457.597C224.78 458.157 222.9 458.307 221.44 458.307L221.42 458.417ZM218.99 437.957C218.99 437.957 218.91 437.957 218.86 437.977C218.91 437.977 218.95 437.967 218.99 437.957ZM212.43 427.597C212.43 427.597 212.4 427.647 212.39 427.677C212.4 427.647 212.42 427.627 212.43 427.597ZM226.4 425.627C226.4 425.627 226.4 425.627 226.39 425.627C226.39 425.627 226.39 425.627 226.4 425.627ZM250.96 424.107C250.96 424.107 250.92 424.147 250.9 424.167C250.92 424.147 250.94 424.127 250.96 424.107ZM246.48 390.417C246.75 390.567 247.03 390.727 247.3 390.887C247.03 390.717 246.76 390.557 246.48 390.397V390.417ZM201.67 384.627C201.67 384.787 201.67 384.957 201.67 385.127V384.627ZM202.06 368.787C202.04 368.937 202.02 369.157 202.01 369.377C202.02 369.177 202.04 368.987 202.06 368.787ZM246.36 343.907L246.34 344.067C246.34 344.017 246.35 343.957 246.36 343.907ZM245.93 329.377C245.93 329.377 245.93 329.407 245.93 329.427C245.93 329.407 245.93 329.397 245.93 329.377ZM246.77 327.567C246.77 327.567 246.77 327.617 246.77 327.637C246.77 327.617 246.77 327.587 246.77 327.567ZM246.85 268.397C246.85 268.397 246.85 268.427 246.85 268.447C246.85 268.427 246.85 268.407 246.85 268.397ZM204.26 259.127C204.26 259.127 204.26 259.147 204.25 259.157C204.25 259.147 204.25 259.137 204.26 259.127ZM204.09 255.237C204.09 255.237 204.11 255.147 204.13 255.097C204.12 255.147 204.1 255.187 204.09 255.237ZM202.08 218.647C202.08 218.717 202.06 218.797 202.06 218.867C202.06 218.797 202.07 218.727 202.08 218.647ZM201.81 206.967C201.81 206.967 201.81 207.047 201.81 207.097C201.81 207.057 201.81 207.007 201.81 206.967ZM201.68 196.157C201.68 196.157 201.68 196.177 201.68 196.197C201.68 196.197 201.68 196.177 201.68 196.157ZM199.27 150.877C199.27 150.877 199.28 150.977 199.29 151.017C199.29 150.967 199.27 150.917 199.27 150.877ZM241.85 142.697C241.85 142.767 241.84 142.847 241.83 142.917C241.83 142.847 241.85 142.767 241.85 142.697ZM241.02 138.547L241.28 139.167C241.2 138.957 241.11 138.747 241.02 138.547ZM199.22 81.3472C199.62 81.6872 200.04 82.0072 200.47 82.3072C200.04 81.9972 199.62 81.6772 199.22 81.3472ZM192.89 70.0271C192.89 70.0271 192.89 70.087 192.89 70.127C192.89 70.097 192.89 70.0671 192.89 70.0271ZM231.21 42.7571C230.96 43.3271 230.71 43.8371 230.48 44.2771C230.75 43.7871 230.99 43.2771 231.21 42.7571Z" fill="#F6583B"/>
</svg>
