<svg width="269" height="400" viewBox="0 0 269 400" fill="none" xmlns="http://www.w3.org/2000/svg">
<path d="M177.38 28.2515C176.5 22.0615 178.26 15.4215 182.26 10.5415C184.02 8.7815 185.81 6.56145 188.02 5.23145C192.88 2.12145 198.62 0.351562 204.38 0.351562C207.48 0.351562 210.14 0.801641 213.23 1.68164C213.53 1.68164 213.824 1.83135 214.11 2.13135C226.51 6.11135 234.03 18.0716 233.15 30.9116C232.27 44.1916 230.49 60.571 228.27 78.271C226.94 77.821 225.17 76.9412 223.84 76.5112C211.44 72.5312 198.16 73.4118 186.21 79.6118C184 80.9418 181.33 82.2716 178.69 83.1616V73.4214C178.24 57.9314 178.24 43.3115 177.81 31.8115C177.81 30.4615 177.38 29.5815 177.38 28.2515ZM124.25 99.9614C125.58 99.5114 126.91 99.0813 128.68 98.6313C142.84 96.4213 157.01 92.4418 170.29 87.1118C169.84 66.7418 169.41 47.2715 168.96 31.7715C168.53 18.0615 158.77 6.99125 145.06 4.78125H140.63C133.54 4.78125 126.47 7.44146 121.16 12.7515C114.97 18.9415 111.86 27.3615 113.19 35.7715C115.84 59.2415 120.26 81.8014 124.26 99.9614H124.25ZM80.8604 135.381C86.1704 146.001 98.5704 151.322 109.64 146.902H110.09C113.64 145.572 116.73 142.921 119.39 140.261C116.29 136.711 113.63 132.742 112.3 129.192C109.64 123.002 109.64 115.912 112.75 110.152C113.63 108.392 114.96 106.601 116.3 105.271C112.75 89.331 108.78 69.8513 106.11 49.0513C101.68 38.8613 91.5004 32.6713 80.0004 33.1113C78.6704 33.1113 77.3404 33.1115 76.0204 33.5615C68.0504 34.4415 60.9805 39.3214 56.5505 45.9614C52.1205 53.0514 51.2404 61.4514 53.4504 68.9814C60.9404 89.3514 69.7904 111.921 80.8604 135.381ZM20.6505 123.862C25.0805 131.382 29.9504 138.471 34.3804 145.551C36.5904 149.101 38.8105 152.642 41.0205 155.742C45.0005 161.932 51.6404 165.482 58.7304 165.042H59.6104C65.8004 164.592 71.5604 161.491 75.1004 156.641C77.3104 153.541 78.2005 150.002 78.6505 146.902C76.4405 144.692 74.6704 142.021 73.3404 138.931C61.8204 115.461 52.9704 92.4519 45.8804 71.1919C45.0004 68.5319 44.5504 66.3114 44.1204 63.6714C40.5704 61.9114 36.6004 61.0112 32.6004 61.0112C31.2704 61.0112 29.9404 61.0114 28.6204 61.4614C28.1704 61.4614 27.2904 61.4616 26.8604 61.9116C18.4604 63.2416 11.3704 68.551 7.39044 76.521C3.41044 84.491 3.41044 93.3518 7.39044 101.322C11.3704 108.832 15.7905 116.352 20.6505 123.872V123.862ZM261.04 136.711C254.85 125.641 249.09 115.021 244.21 105.271C239.33 95.531 230.93 88.4419 220.74 84.9019C210.55 81.3519 199.49 82.241 190.2 87.561C171.16 97.751 150.81 104.392 129.98 107.482C126 107.932 122.46 110.582 120.24 114.122C118.48 117.672 118.03 121.641 119.79 125.641C126.88 141.131 143.26 148.221 168.49 147.771C186.65 147.321 201.69 142.892 211.88 134.942C215.86 131.842 218.52 128.301 219.85 126.091C220.73 124.331 222.95 123.882 224.73 124.332C227.39 125.212 228.28 128.311 226.94 130.521C225.18 133.181 222.06 137.161 217.64 141.141C212.33 145.571 206.12 148.662 199.05 151.332C192.41 153.542 184.89 155.311 176.92 155.761C175.59 156.211 161.43 158.862 146.81 169.492C126.44 184.102 114.06 206.242 110.51 235.442C110.06 237.652 108.3 239.421 106.08 239.421H105.63C103.42 238.971 101.65 237.212 102.08 234.542C104.29 217.282 109.17 201.792 117.12 188.942C123.76 178.322 132.16 169.471 141.92 162.381C145.9 159.721 149.44 157.502 152.99 155.742C141.04 153.982 132.19 150.431 125.55 146.001C122.45 149.981 118.03 153.091 113.15 155.301H112.7C109.15 156.631 105.18 157.511 101.63 157.511C96.3204 157.511 90.5604 156.182 86.1404 153.532C85.2604 156.632 83.9305 159.721 82.1605 162.381C76.8505 169.901 68.8805 174.332 60.0305 174.782H57.8204C48.0804 174.782 38.7804 169.901 33.4704 161.501C31.2604 158.401 29.0404 154.861 26.8304 151.311C19.3104 139.791 11.3404 127.411 4.25043 114.131C-2.38957 157.071 1.15039 203.121 5.58039 236.751C7.79039 254.461 14.4305 271.722 25.0505 286.782V287.232C31.2405 296.532 34.7904 307.151 34.3504 318.671C33.9004 357.181 32.1404 385.962 31.2504 399.692H180.89C180.01 383.752 178.23 352.332 177.79 316.912C177.79 305.842 179.55 294.781 183.55 284.591C187.53 274.401 193.29 264.672 201.26 256.702C216.75 240.322 232.7 225.261 249.08 211.101C269.88 192.041 275.19 161.052 261.03 136.702L261.04 136.711Z" fill="#F6583B"/>
</svg>
