<svg width="349" height="436" viewBox="0 0 349 436" fill="none" xmlns="http://www.w3.org/2000/svg">
<path d="M348.61 171.376C347.67 221.586 331.66 263.176 297.69 296.676C258.74 335.086 223.99 376.726 194.42 422.746C183.68 439.456 166.08 439.156 154.84 422.796C123.56 377.246 88.3699 334.896 49.9399 295.206C-41.9401 200.336 1.62994 41.4659 129.03 6.66586C229.23 -20.7041 331.43 45.9756 346.52 148.676C347.75 157.046 348.1 165.546 348.63 171.376H348.61ZM174.59 374.206C175.38 373.236 176.29 372.276 177.03 371.196C203.06 333.516 233.18 299.416 265.72 267.216C297.48 235.776 309.99 197.206 303.01 152.946C291.39 79.2161 218 30.2561 145.43 47.4461C46.72 70.8261 10.9499 190.456 80.3799 264.406C98.9499 284.186 117.07 304.416 134.78 324.966C148.48 340.866 161.23 357.596 174.59 374.206Z" fill="#401F71"/>
<path d="M153.02 141.862C153.02 131.342 152.94 120.823 153.04 110.313C153.17 97.1125 162.29 87.5725 174.62 87.5625C186.97 87.5525 196.18 97.0717 196.25 110.262C196.36 131.302 196.36 152.332 196.25 173.372C196.18 186.552 186.97 196.163 174.67 196.183C162.38 196.203 153.16 186.583 153.03 173.433C152.93 162.913 153.01 152.392 153.01 141.882L153.02 141.862Z" fill="#401F71"/>
<path d="M152.96 239.458C153.02 227.408 162.62 217.818 174.64 217.828C186.86 217.828 196.51 227.668 196.36 239.958C196.21 251.868 186.2 261.668 174.41 261.438C162.41 261.208 152.91 251.478 152.96 239.468V239.458Z" fill="#401F71"/>
</svg>
