<svg width="159" height="429" viewBox="0 0 159 429" fill="none" xmlns="http://www.w3.org/2000/svg">
<path d="M113.231 393.168L111.711 416.668C111.261 423.568 105.491 428.988 98.5808 428.978H60.6208C53.7008 428.978 47.9407 423.568 47.4907 416.668L45.9707 393.168H113.231Z" fill="#401F71"/>
<path d="M136.64 213.797V237.987H22.5303V213.797H136.64Z" fill="#401F71"/>
<path d="M156.75 90.3306H17.8003L2.42017 90.3203C1.79017 90.3203 1.37017 90.6506 1.17017 90.8506C0.980166 91.0406 0.660156 91.4603 0.660156 92.0903V202.561C0.660156 203.191 0.990166 203.61 1.17017 203.8C1.37017 204 1.78017 204.311 2.42017 204.331H156.77C157.4 204.331 157.82 204 158.01 203.82C158.21 203.62 158.52 203.21 158.54 202.57V92.1304C158.53 91.1404 157.74 90.3506 156.76 90.3506L156.75 90.3306ZM112.1 165.831C112.1 167.131 111.56 168.331 110.71 169.181C109.86 170.031 108.67 170.57 107.36 170.57H51.8003C49.1703 170.58 47.0503 168.46 47.0603 165.84C47.0603 163.23 49.1903 161.101 51.8003 161.101H107.37C109.98 161.071 112.11 163.211 112.1 165.831ZM112.11 128.791C112.11 130.091 111.57 131.291 110.72 132.141C109.87 132.991 108.68 133.53 107.37 133.53H51.7903C49.1703 133.56 47.0403 131.42 47.0503 128.8C47.0503 126.17 49.1703 124.051 51.7903 124.061H107.36C109.98 124.051 112.11 126.181 112.11 128.791Z" fill="#401F71"/>
<path d="M136.64 57.499V80.8291H22.5303V57.499C22.5303 26.039 48.1203 0.449219 79.5803 0.449219C111.04 0.449219 136.63 26.039 136.63 57.499H136.64Z" fill="#401F71"/>
<path d="M36.5098 247.469L45.3298 383.668H113.84L122.65 247.479L36.5098 247.469Z" fill="#401F71"/>
</svg>
