<svg width="272" height="442" viewBox="0 0 272 442" fill="none" xmlns="http://www.w3.org/2000/svg">
<path d="M10.9702 352.262C17.3502 345.882 25.2402 342.512 34.2402 342.512H237.68C255.68 342.512 270.7 357.522 270.71 375.542V408.562C270.71 426.562 255.7 441.582 237.68 441.592H34.2402C16.2402 441.592 1.21996 426.582 1.20996 408.562V375.542C1.21996 366.522 4.96021 358.272 10.9702 352.262Z" fill="white"/>
<path d="M49.27 325.991L223.04 326.371C226.03 326.371 229.43 324.491 230.18 321.491L270.34 231.781C271.47 229.161 271.47 226.901 269.96 224.651L144.22 1.33105L143.86 156.351C152.86 157.851 161.13 162.361 167.88 169.111C176.52 177.751 181.02 188.991 181.02 201.011C181.02 225.791 160.76 246.051 135.98 246.051C111.2 246.051 90.9399 225.791 90.9399 201.011C90.9399 188.251 95.8201 177.361 104.08 169.111C110.46 162.731 118.71 158.231 127.73 156.721L128.09 0.210938L1.60987 224.281C0.109867 226.541 0.479984 229.161 1.22998 231.411L41.3901 321.121C43.2801 324.511 45.91 326.371 49.29 326.001L49.27 325.991Z" fill="white"/>
<path d="M107.061 200.632C107.061 216.412 120.2 229.542 135.96 229.532C144.23 229.532 151.351 226.162 156.601 220.912C161.851 215.662 165.241 208.521 165.221 200.271C165.221 192.761 162.231 185.262 156.601 179.632C150.971 174.002 143.83 171.382 135.96 171.012C120.2 171.732 107.431 184.502 107.061 200.642V200.632Z" fill="white"/>
</svg>
