<svg width="377" height="63" viewBox="0 0 377 63" fill="none" xmlns="http://www.w3.org/2000/svg">
<path d="M144.594 36.085C143.583 36.575 142.582 37.135 141.567 37.525C141.226 37.655 140.804 37.605 140.5 37.285C139.66 36.405 138.925 36.175 138.119 37.565C137.863 38.015 137.327 37.835 136.923 37.805C136.079 37.755 135.239 37.545 134.395 37.525C133.456 37.505 132.512 37.625 131.573 37.665C131.046 37.685 130.515 37.665 129.827 37.665C129.21 36.265 129.021 36.275 128.447 38.095C127.403 37.645 128.769 35.705 127.982 35.015C127.915 35.315 127.835 35.585 127.792 35.885C127.541 37.675 127.104 38.195 126.222 38.225C125.321 38.265 124.424 38.645 123.523 38.785C123.295 38.825 122.991 38.705 122.83 38.395C122.446 37.675 122.199 37.585 121.891 38.595C121.81 38.865 121.436 38.885 121.213 38.805C119.79 38.245 118.371 38.445 116.953 38.825C115.9 39.105 114.842 39.325 113.784 39.515C113.604 39.545 113.419 39.235 113.234 39.205C112.75 39.125 112.371 38.705 111.778 39.485C111.142 40.325 110.136 39.925 109.287 39.985C109.221 39.985 109.159 39.295 109.074 38.945C108.988 38.585 108.884 38.255 108.713 37.645C108.173 41.035 106.849 40.325 105.829 40.705C104.658 41.145 103.448 41.155 102.253 41.315C101.057 41.475 99.8191 42.585 98.7091 40.615C98.6379 40.495 98.3248 40.825 98.1778 41.075C97.7793 41.755 97.4141 42.415 97.1057 41.415C96.5934 41.475 96.1807 41.525 95.5925 41.605C95.1466 41.755 94.5158 42.055 93.8801 42.185C92.4713 42.465 91.0624 42.705 89.6536 42.885C88.7713 42.995 87.8795 42.885 86.9972 42.985C86.0153 43.095 85.0428 43.355 84.0609 43.525C83.1833 43.675 82.3058 43.825 81.4282 43.885C81.3049 43.885 81.1768 43.365 81.063 43.575C80.2945 43.875 79.5166 44.495 78.7623 44.395C77.0641 44.165 75.4229 44.565 73.7531 45.135C72.2067 45.665 70.6129 45.585 69.0475 45.885C68.1604 46.055 67.2924 46.585 66.4053 46.7351C65.4139 46.905 64.4178 46.755 63.4216 46.855C61.8989 47.015 60.3762 47.265 58.8535 47.495C57.6534 47.675 56.4533 47.915 55.2532 48.045C53.7969 48.205 52.3311 48.075 50.8891 48.455C49.67 48.775 48.4888 49.765 47.2697 50.2351C46.7622 50.425 46.2024 49.925 45.6617 49.905C44.7699 49.885 43.8781 49.905 42.991 50.095C41.715 50.355 40.4532 50.805 39.1772 51.115C37.7162 51.475 36.2457 51.735 34.7799 52.085C33.6082 52.365 32.4413 52.695 31.2744 53.035C31.1179 53.085 30.9091 53.195 30.8285 53.425C30.3209 54.925 29.7659 54.545 29.3959 53.995C28.5374 54.435 27.8638 54.875 27.1712 55.115C26.2699 55.435 25.3592 55.585 24.4531 55.825C23.6942 56.025 23.6135 55.965 23.1487 54.335C22.5557 54.915 21.9628 55.595 21.3319 56.065C20.663 56.565 19.9515 57.355 19.4914 56.195C18.9221 56.505 18.5142 56.755 18.0967 56.955C17.7505 57.125 17.3994 57.275 17.0484 57.365C15.7012 57.715 14.3588 58.145 13.0069 58.355C11.8305 58.535 10.692 58.955 9.56305 59.635C9.00805 59.965 8.4151 60.005 7.83639 60.195C6.64101 60.575 5.36973 60.235 4.34512 62.175C4.13165 62.585 3.66678 62.405 3.46281 62.465C3.26832 61.825 3.14025 61.415 2.99794 60.945C3.23038 60.725 3.58614 60.515 3.87076 60.085C4.03204 59.835 4.06999 59.235 4.16486 58.795C3.97986 58.675 3.79012 58.425 3.60986 58.445C2.32435 58.625 1.08628 58.215 0.275128 57.085C0.924998 56.445 1.47525 55.905 2.24371 55.145C2.05397 54.625 1.89743 53.725 1.64128 53.585C1.30448 53.395 0.891793 53.795 0.512307 53.935C0.493333 53.775 0.469614 53.615 0.45064 53.445C1.06256 53.045 1.67448 52.655 2.2864 52.255C2.27217 52.085 2.26269 51.905 2.24846 51.7351C1.71718 51.835 1.18115 52.035 0.649869 51.995C0.426921 51.975 0.218204 51.445 0 51.155C0.222948 50.7351 0.422178 50.085 0.678331 49.955C1.15269 49.715 1.665 49.775 2.16307 49.705C2.18205 49.495 2.20576 49.285 2.22474 49.065C2.01602 48.785 1.82628 48.445 1.60333 48.245C0.934485 47.645 0.872818 46.845 1.32346 45.705C2.47615 42.795 3.91819 41.675 5.72075 41.565C7.55652 41.455 9.37805 40.515 11.2186 40.185C12.9737 39.875 14.743 39.935 16.5076 39.755C18.5237 39.545 20.5397 39.265 22.5557 38.995C24.1685 38.775 25.7766 38.405 27.3894 38.315C28.3998 38.255 29.4149 38.705 30.4253 38.715C31.1463 38.715 31.8673 38.315 32.5884 38.185C33.0295 38.105 33.4802 38.295 33.9166 38.185C35.5341 37.815 37.1422 37.245 38.7598 36.995C40.4248 36.735 42.0992 36.805 43.7642 36.665C45.1873 36.545 46.6104 36.375 48.024 36.115C49.7317 35.795 51.4251 35.215 53.1328 34.995C55.5995 34.675 58.0756 34.675 60.5375 34.355C62.0887 34.145 63.6303 33.515 65.1815 33.225C66.5144 32.975 67.8568 32.915 69.1945 32.835C70.6461 32.745 72.0976 32.685 73.5539 32.675C74.4457 32.675 75.3659 32.525 76.2198 32.945C76.8364 33.245 77.363 34.355 78.0745 35.295C78.103 34.305 78.1314 33.495 78.1646 32.415C78.7054 32.645 79.2414 32.815 79.7585 33.125C79.8913 33.205 80.0526 33.725 80.0573 34.055C80.0716 35.575 80.7072 35.125 81.0725 35.515C81.1009 35.545 81.3239 35.075 81.3049 34.925C81.2669 34.645 81.1341 34.385 81.0108 34.215C80.8068 33.925 80.5791 33.705 80.2993 33.385C80.8827 32.885 81.2669 32.385 81.6749 32.245C82.5477 31.945 83.4348 31.855 84.3123 31.635C85.4792 31.345 86.6414 30.945 87.8083 30.715C88.8282 30.525 89.8576 30.525 90.8822 30.415C91.181 30.385 91.4941 30.395 91.774 30.215C92.8413 29.555 93.8516 29.665 94.881 30.665C95.2889 31.055 95.8819 31.115 96.3041 30.815C97.3239 30.085 98.3059 29.785 99.4016 30.045C100.07 30.205 100.782 29.135 101.494 28.935C102.219 28.735 102.969 28.935 103.709 28.935C103.922 28.935 104.155 28.885 104.344 28.705C105.046 28.015 105.592 28.125 105.886 30.005C106.427 29.105 106.915 27.455 107.451 29.395C107.75 29.095 107.973 28.795 108.215 28.625C109.747 27.555 111.336 28.155 112.897 27.955C113.993 27.825 115.079 27.335 116.175 27.125C117.868 26.805 119.562 26.495 121.26 26.355C122.351 26.265 123.447 26.465 124.538 26.545C124.799 26.565 125.055 26.595 125.392 26.625C124.486 29.265 123.67 29.425 122.332 28.545C121.602 28.065 120.696 28.785 119.87 28.965C119.88 29.245 119.889 29.525 119.899 29.805H127.076C127.133 30.085 127.218 30.535 127.313 31.005C127.545 30.365 127.763 29.765 128.02 29.055C127.607 28.825 127.204 28.615 126.796 28.385C126.929 27.805 127.066 27.225 127.223 26.535C128.807 25.975 130.472 25.255 132.161 24.845C132.83 24.685 133.536 25.315 134.234 25.395C135.073 25.495 135.922 25.435 136.762 25.355C138.142 25.225 139.523 24.955 140.908 24.875C141.7 24.825 142.507 24.905 143.28 25.195C143.555 25.295 144.19 25.705 143.726 27.065C143.635 27.335 143.896 28.135 144.043 28.975C144.812 28.495 145.533 28.045 146.415 27.485C145.822 26.705 145.443 26.205 145.059 25.705C145.092 25.465 145.13 25.215 145.163 24.975C145.87 24.695 146.581 24.165 147.288 24.175C148.806 24.195 150.324 24.655 151.847 24.625C152.9 24.605 153.948 23.935 155.006 23.835C156.106 23.725 157.216 23.995 158.322 24.025C158.73 24.025 159.137 23.795 159.55 23.715C161.158 23.435 162.771 23.125 164.379 22.925C164.863 22.865 165.361 23.225 165.845 23.185C166.537 23.125 167.225 22.765 167.918 22.735C169.132 22.685 170.351 22.885 171.566 22.815C172.567 22.765 173.563 22.425 174.568 22.325C176.286 22.165 178.003 22.095 179.72 21.985C179.834 21.985 179.971 21.935 180.052 22.055C181.114 23.655 182.158 22.355 183.225 22.095C184.136 21.875 185.075 22.055 185.996 22.215C186.181 22.245 186.337 23.035 186.546 23.575C187.438 20.975 188.785 22.705 189.876 21.935C189.952 21.885 190.156 22.615 190.298 22.985C190.108 23.185 189.914 23.555 189.724 23.555C189.402 23.555 189.074 23.205 188.752 23.225C188.543 23.245 188.344 23.665 188.14 23.905C188.168 24.115 188.201 24.315 188.23 24.525C189.254 24.425 190.279 24.325 191.536 24.195C191.166 23.365 190.986 22.965 190.777 22.505C191.218 21.615 191.621 21.675 192.158 22.135C192.57 22.495 193.097 22.365 193.571 22.305C193.804 22.275 194.022 21.795 194.264 21.715C195.639 21.285 197.02 20.835 198.4 20.535C199.206 20.355 200.046 20.245 200.582 21.735C201.37 21.495 202.1 21.185 202.84 21.065C204.595 20.775 206.35 20.415 208.11 20.375C209.415 20.345 210.719 20.885 212.024 20.945C213.295 20.995 214.566 20.755 215.837 20.635C217.113 20.515 218.389 20.465 219.661 20.215C220.116 20.125 220.543 19.515 220.851 19.255C221.221 19.645 221.497 20.165 221.786 20.205C222.953 20.375 224.12 20.525 225.287 20.445C226.06 20.395 226.828 19.755 227.602 19.695C228.721 19.615 229.84 19.845 230.96 19.915C231.98 19.985 233.004 20.015 234.024 20.085C235.732 20.205 237.444 20.425 239.152 20.445C240.438 20.455 241.723 20.155 243.009 20.085C243.877 20.045 244.745 20.235 245.608 20.235C247.449 20.235 249.289 20.155 251.13 20.165C252.102 20.165 253.075 20.315 254.047 20.305C254.54 20.305 255.043 19.875 255.532 19.955C256.694 20.145 257.837 20.225 259.013 20.105C260.271 19.975 261.57 19.825 262.856 20.215C264.141 20.605 265.46 20.575 266.764 20.555C267.803 20.535 268.837 20.135 269.872 20.135C271.513 20.135 273.173 20.705 274.786 20.325C275.986 20.045 277.02 20.455 278.097 21.255C278.287 21.395 278.538 21.195 278.761 21.115C279.724 20.735 280.663 20.345 281.664 20.825C282.143 21.055 282.708 20.375 283.225 20.435C284.221 20.555 285.217 20.915 286.208 21.165C286.37 21.205 286.536 21.195 286.697 21.165C288.414 20.905 290.131 20.445 291.849 20.425C294.761 20.405 297.678 20.665 300.591 20.795C303.058 20.905 305.529 21.075 307.996 21.035C309.148 21.015 310.296 20.485 311.454 20.375C312.137 20.305 312.829 20.685 313.517 20.705C314.366 20.725 315.225 20.465 316.074 20.545C317.137 20.645 318.19 21.085 319.252 21.155C320.002 21.205 320.751 20.885 321.505 20.725C321.97 20.625 322.445 20.285 322.89 20.435C325.3 21.215 327.719 21.135 330.143 21.075C331.282 21.045 332.425 21.485 333.568 21.505C334.773 21.525 335.983 21.305 337.188 21.165C338.748 20.985 340.318 20.905 341.874 20.575C343.468 20.245 343.952 18.525 343.705 15.115C343.591 13.535 343.644 11.865 343.734 10.265C343.776 9.53504 344.09 8.85504 344.298 8.18504C344.607 7.18504 344.929 6.20504 345.252 5.22504C345.513 4.43504 345.773 3.63504 346.058 2.88504C346.158 2.61504 346.404 2.53504 346.457 2.26504C346.997 -0.504959 348.06 -0.204955 349.08 0.425045C349.639 0.775045 350.195 1.51504 350.617 2.37504C352.158 5.46504 354.17 5.98504 356.086 7.11504C356.698 7.47504 357.224 8.47504 357.832 8.90504C358.932 9.69504 360.061 10.315 361.181 10.955C362.376 11.635 363.581 12.265 364.776 12.915C365.127 13.105 365.474 13.355 365.829 13.495C366.697 13.835 367.58 14.075 368.448 14.435C369.283 14.775 370.146 14.995 370.929 15.635C372.053 16.555 373.134 17.725 374.192 18.945C374.472 19.265 374.619 20.135 374.818 20.755C375.084 21.605 375.435 22.405 375.592 23.335C376.09 26.335 376.555 29.365 376.948 32.435C377.072 33.405 376.939 34.535 376.915 35.585C376.896 36.575 376.887 37.575 376.834 38.555C376.806 39.105 376.782 39.815 376.616 40.165C375.445 42.615 374.263 45.035 373.03 47.345C372.693 47.975 372.181 48.355 371.721 48.515C370.113 49.085 368.495 49.645 366.873 49.955C365.274 50.265 363.662 50.325 362.053 50.355C361.536 50.355 360.924 50.195 360.517 49.605C359.378 47.965 358.315 46.185 358.13 42.865C358.017 40.855 357.59 38.925 357.286 36.975C357.096 35.755 356.636 35.655 356.081 35.525C354.554 35.155 353.852 37.115 353.164 39.465C352.96 40.165 352.396 40.665 351.973 40.745C351.338 40.855 350.901 41.135 350.527 42.385C349.919 44.415 349.454 44.205 348.866 42.045C348.245 42.405 347.628 42.635 347.059 43.125C346.457 43.645 346.153 43.025 345.883 42.125C345.631 41.275 345.361 40.425 345.176 39.505C344.829 37.785 344.146 37.585 343.397 37.535C343.065 37.515 342.733 37.485 342.401 37.425C341.258 37.215 340.119 36.925 338.976 36.795C337.648 36.635 336.315 36.625 334.982 36.525C333.023 36.385 331.068 36.245 329.109 36.095C328.744 36.065 328.369 35.865 328.023 36.005C327.729 36.125 327.482 36.675 327.198 36.975C326.856 37.335 326.515 37.825 326.154 37.895C325.746 37.975 325.21 37.985 325.196 36.335C325.727 36.235 326.239 36.135 326.752 36.025C326.761 35.915 326.775 35.795 326.785 35.685C326.633 35.595 326.486 35.445 326.334 35.435C324.19 35.365 322.046 35.285 319.902 35.275C318.968 35.275 318.038 35.505 317.103 35.475C316.748 35.465 316.397 34.985 315.984 34.675C315.083 35.915 314.02 35.045 313 34.875C312.322 34.765 311.667 34.045 310.989 33.825C310.728 33.745 310.424 34.315 310.239 34.485C309.414 34.345 308.65 34.135 307.882 34.095C305.733 33.985 303.579 33.955 301.426 33.885C300.335 33.845 299.239 33.805 298.148 33.745C295.378 33.595 292.607 33.425 289.837 33.295C288.775 33.245 287.712 33.345 286.654 33.295C285.179 33.225 283.699 33.045 282.224 32.965C280.654 32.885 279.079 32.945 277.509 32.775C276.342 32.655 275.184 32.215 274.017 32.055C273.424 31.975 272.817 32.305 272.22 32.275C271.883 32.255 271.551 31.885 271.266 31.995C270.706 32.195 270.147 32.525 269.582 32.585C268.254 32.715 266.926 32.735 265.598 32.765C265.294 32.765 264.948 32.765 264.692 32.485C264.137 31.885 263.629 31.795 263.102 32.545C263.017 32.665 262.846 32.795 262.785 32.705C261.485 30.695 259.943 32.995 258.61 31.645C256.405 32.675 254.194 31.575 251.988 31.815C251.737 31.845 251.514 32.675 251.248 32.755C250.921 32.855 250.57 32.475 250.224 32.445C249.194 32.355 248.16 32.335 247.131 32.265C247.055 32.265 246.965 31.985 246.913 32.025C245.973 32.745 245.015 31.535 244.024 32.375C242.895 33.335 241.69 33.205 240.542 31.945C239.892 31.235 239.261 31.215 238.474 31.855C237.535 32.605 236.42 32.405 235.376 32.535C235.324 32.535 235.248 31.715 235.153 31.065C234.845 31.365 234.48 31.615 234.162 32.035C233.417 33.035 232.682 33.205 231.89 32.265C231.657 31.995 231.358 31.715 231.117 31.795C229.988 32.145 229.47 31.225 229.527 28.825C229.537 28.415 229.551 27.995 229.47 27.575C229.433 29.005 228.251 30.315 229.418 31.985C228.247 31.885 227.094 33.435 226.017 31.455C225.903 31.245 225.567 31.215 225.443 31.415C224.741 32.485 224.091 31.565 223.418 31.625C223.399 31.475 223.38 31.315 223.361 31.165C223.641 30.735 223.916 30.315 224.196 29.885C223.588 28.335 222.407 28.145 221.245 29.405C221.762 30.065 222.284 30.735 222.839 31.445C222.208 32.665 221.653 32.755 220.889 32.615C219.319 32.335 217.721 32.735 216.136 32.845C215.942 32.855 215.719 32.975 215.553 32.835C214.097 31.565 212.56 32.595 211.07 32.145C210.676 32.025 210.287 32.025 209.88 31.795C209.505 31.585 209.045 32.115 208.618 32.195C208.271 32.265 207.906 32.245 207.565 32.085C207.176 31.905 206.848 31.575 206.559 32.575C206.478 32.855 206.047 32.635 205.786 32.755C204.287 33.425 202.788 32.855 201.289 32.815C199.98 32.775 198.67 33.065 197.361 33.205C195.772 33.375 194.188 33.575 192.599 33.685C192.442 33.695 192.191 33.195 192.134 32.835C192.029 32.175 192.039 31.445 191.987 30.495H194.999C193.467 28.765 191.166 28.855 190.203 30.645C190.668 30.785 191.033 30.895 191.384 30.995C191.384 31.555 191.384 32.105 191.384 32.655C191.375 33.975 190.929 34.395 190.436 34.365C190.094 34.345 189.672 34.035 189.439 33.535C188.828 32.215 188.363 32.145 188.107 33.365C187.348 33.615 186.778 33.725 186.233 34.005C185.763 34.255 185.517 34.145 185.678 32.475C185.018 33.045 184.53 33.585 184.003 33.895C183.595 34.135 183.145 34.175 182.713 34.135C182.158 34.085 181.608 33.835 181.053 33.745C180.925 33.725 180.787 34.035 180.65 34.145C180.137 34.565 179.63 34.925 179.407 33.255C178.672 33.735 177.941 34.235 177.196 34.675C176.627 35.015 176.243 34.635 176.238 33.355C175.408 33.925 174.573 35.105 173.819 34.895C172.154 34.445 170.565 35.835 168.928 35.305C168.444 35.145 167.923 34.535 167.496 34.765C166.566 35.265 165.612 33.615 164.901 34.425C163.867 35.605 162.999 34.285 162.069 34.515C161.258 34.715 160.451 35.105 159.64 35.225C158.416 35.395 157.202 36.575 155.955 35.025C155.618 34.605 155.025 34.425 154.527 35.535C154.266 36.115 153.502 35.835 152.98 35.685C152.691 35.605 152.473 35.515 152.155 35.615C150.727 36.045 149.271 36.295 147.829 36.295C147.383 36.295 146.937 35.325 146.629 34.965C146.629 34.075 146.657 33.065 146.629 33.055C146.216 32.945 145.799 32.985 145.376 32.985C145.452 33.165 145.528 33.345 145.604 33.525C145.438 34.565 145.272 35.615 145.106 36.655C144.916 36.425 144.722 36.195 144.532 35.955C144.878 35.675 145.016 35.455 144.84 34.445C144.518 32.575 143.944 33.465 143.332 33.415C143.792 34.385 144.172 35.195 144.556 36.005L144.594 36.085ZM185.958 25.635C185.991 25.405 186.024 25.175 186.057 24.945C185.64 24.065 185.313 23.015 184.52 23.345C183.168 23.905 181.798 24.265 180.365 24.725C180.46 25.295 180.526 25.695 180.597 26.135C181.688 24.695 182.447 24.565 183.685 25.135C184.425 25.475 185.199 25.475 185.953 25.625L185.958 25.635ZM118.485 35.975C118.48 35.765 118.471 35.545 118.466 35.335C116.853 35.425 115.236 35.505 113.623 35.645C113.528 35.645 113.447 36.155 113.357 36.425C113.485 36.565 113.618 36.835 113.746 36.825C114.458 36.755 115.169 36.585 115.881 36.515C116.445 36.455 117.086 36.145 117.565 36.575C118.115 37.065 118.243 36.505 118.485 35.975ZM155.438 32.915C155.632 33.155 155.698 33.315 155.765 33.305C156.993 33.215 158.222 33.135 159.451 32.965C159.655 32.935 159.873 32.485 160.02 32.115C160.077 31.975 160.001 31.295 159.93 31.255C159.707 31.125 159.408 30.985 159.237 31.195C158.919 31.585 158.677 32.175 158.293 31.425C158.194 31.225 157.961 31.135 157.824 31.225C157.06 31.725 156.31 32.285 155.433 32.925L155.438 32.915ZM93.3441 38.645C93.0405 37.845 92.5329 37.275 91.8688 37.905C91.7123 38.055 91.6079 38.435 91.4799 38.715C91.6174 38.965 91.736 39.325 91.8973 39.465C93.1638 40.515 94.4067 39.395 95.659 39.235C95.7206 39.235 95.7728 38.915 95.9388 38.405C95.0281 38.495 94.2833 38.565 93.3441 38.655V38.645ZM185.047 30.715C184.222 28.755 183.377 28.855 182.338 30.925C183.206 32.615 183.652 32.595 185.047 30.715ZM125.041 36.945C125.534 35.315 125.401 35.095 123.248 34.285C123.096 34.945 122.935 35.645 122.764 36.385C123.542 36.575 124.23 36.745 125.041 36.945ZM91.4087 35.525C91.5083 35.525 91.6079 35.545 91.7076 35.545C91.8261 35.065 91.9447 34.575 92.0775 34.035C92.6088 34.105 93.1354 34.205 93.6666 34.245C93.7852 34.245 93.9987 34.075 94.0129 33.915C94.0367 33.615 93.9892 33.025 93.9133 32.985C93.6097 32.805 93.2872 32.725 92.9693 32.715C92.7369 32.715 92.5045 32.885 92.2673 32.945C91.902 33.025 91.532 33.075 91.1668 33.145C91.2474 33.935 91.3281 34.735 91.4087 35.525ZM128.636 34.495C128.826 35.125 128.983 36.135 129.163 36.155C129.874 36.245 130.6 36.015 131.316 35.905C130.557 33.995 129.675 33.965 128.632 34.485L128.636 34.495ZM156.974 25.725C157.767 27.655 159 27.715 159.545 25.945C158.73 24.935 157.918 24.545 156.974 25.725ZM76.9361 42.325C78.3939 41.905 79.2114 41.345 79.3885 40.645C79.0232 40.515 78.6437 40.375 78.1884 40.205C78.0793 41.335 76.7416 39.695 76.9361 42.315V42.325ZM172.268 24.795C172.272 25.005 172.277 25.215 172.282 25.425H175.65C175.674 25.195 175.697 24.965 175.721 24.735C175.427 24.545 175.133 24.225 174.834 24.185C174.44 24.135 174.032 24.275 173.639 24.375C173.183 24.495 172.728 24.655 172.272 24.795H172.268ZM200.843 30.185H204.832C204.832 29.885 204.823 29.585 204.818 29.285C203.495 29.575 202.147 28.705 200.843 30.185ZM208.646 23.665C207.512 22.005 206.393 23.195 205.288 23.355C206.379 24.125 207.479 24.465 208.646 23.665ZM174.066 31.045C174.051 30.855 174.032 30.665 174.018 30.475C173.672 30.395 173.326 30.215 172.984 30.255C172.671 30.285 172.244 30.345 172.092 30.765C171.945 31.155 172.092 32.025 172.106 32.575C172.884 31.975 173.477 31.515 174.07 31.055L174.066 31.045ZM238.09 29.775C238.692 29.775 239.109 29.745 239.527 29.775C240.034 29.825 240.547 29.945 241.054 30.025C241.059 29.845 241.069 29.665 241.073 29.495C240.661 29.245 240.215 29.125 239.84 28.715C239.166 27.975 238.687 28.395 238.09 29.775ZM95.0043 32.545C95.6257 33.115 96.2187 33.655 96.8211 34.205C96.9777 31.745 96.4559 31.045 95.0043 32.545ZM178.781 31.585C178.781 31.255 178.785 30.935 178.79 30.605C178.183 30.515 177.576 30.405 176.969 30.365C176.883 30.365 176.722 30.725 176.722 30.915C176.722 31.145 176.855 31.555 176.94 31.555C177.552 31.615 178.169 31.585 178.781 31.585ZM79.9862 41.715C80.8068 41.345 81.4519 41.045 82.0923 40.755C82.0923 40.575 82.0876 40.385 82.0828 40.205C81.4946 40.055 80.9112 39.905 80.1807 39.715C80.138 40.175 80.0668 40.855 79.9862 41.725V41.715ZM132.754 34.205C132.754 34.465 132.754 34.725 132.749 34.985C133.494 34.525 134.229 36.845 135.187 34.465C134.243 34.365 133.498 34.285 132.758 34.205H132.754ZM168.914 25.115C168.923 25.335 168.933 25.565 168.942 25.785C169.611 25.715 170.285 25.635 170.954 25.565C170.949 25.315 170.94 25.055 170.935 24.805C170.275 25.875 169.564 23.235 168.914 25.115ZM208.006 29.485C208.015 29.645 208.02 29.805 208.03 29.955C208.969 30.675 209.438 30.545 210.069 29.065C209.268 29.225 208.637 29.355 208.006 29.485ZM86.6272 35.415C86.0295 33.345 85.6927 33.265 84.6064 34.395C85.2278 34.705 85.8255 35.015 86.6272 35.415ZM154.598 33.035C154.588 32.745 154.579 32.465 154.565 32.175C153.834 32.465 153.104 32.755 152.373 33.035L152.425 33.665C153.146 33.455 153.872 33.245 154.593 33.035H154.598ZM207.176 30.295C207.18 30.085 207.19 29.875 207.195 29.655C206.583 29.445 205.971 29.235 205.359 29.015C205.345 29.345 205.326 29.685 205.311 30.015C205.933 30.105 206.559 30.195 207.18 30.285L207.176 30.295ZM130.306 29.895C130.885 29.595 131.335 29.375 131.781 29.145C131.758 28.945 131.729 28.755 131.705 28.555C131.293 29.045 130.491 27.085 130.306 29.895ZM112.309 30.935C112.347 31.285 112.38 31.625 112.418 31.975C112.807 31.735 113.191 31.505 113.58 31.265C113.542 30.965 113.509 30.675 113.471 30.375C113.082 30.565 112.698 30.745 112.309 30.935ZM98.6 33.065C99.1407 33.145 99.4443 33.215 99.7432 33.215C99.8618 33.215 99.9851 33.105 100.089 32.985C100.123 32.945 100.099 32.535 100.08 32.525C99.7432 32.355 99.4016 32.135 99.0601 32.135C98.9273 32.135 98.7945 32.655 98.6047 33.065H98.6ZM118.993 35.695C119.002 35.905 119.016 36.125 119.026 36.335C119.695 36.215 120.359 36.095 121.028 35.975C121.018 35.785 121.004 35.585 120.994 35.395C120.326 35.495 119.661 35.595 118.993 35.695ZM233.849 29.475C233.882 29.735 233.91 29.995 233.944 30.265C234.38 30.045 234.816 29.835 235.253 29.615C235.22 29.345 235.186 29.075 235.153 28.805C234.717 29.025 234.285 29.245 233.849 29.475ZM169.626 31.725C169.189 30.405 168.696 30.435 167.989 31.725H169.626Z" fill="#F6583B"/>
</svg>
