<svg width="503" height="436" viewBox="0 0 503 436" fill="none" xmlns="http://www.w3.org/2000/svg">
<path d="M229.85 207.011C229.85 196.491 229.77 185.971 229.87 175.461C230 162.261 239.12 152.721 251.45 152.711C263.8 152.701 273.01 162.221 273.08 175.411C273.19 196.451 273.19 217.481 273.08 238.521C273.01 251.701 263.8 261.311 251.5 261.331C239.21 261.351 229.99 251.731 229.86 238.581C229.76 228.061 229.84 217.541 229.84 207.031L229.85 207.011Z" fill="#401F71"/>
<path d="M229.79 304.599C229.85 292.549 239.45 282.959 251.47 282.969C263.69 282.969 273.34 292.809 273.19 305.099C273.04 317.009 263.03 326.809 251.24 326.579C239.24 326.349 229.74 316.619 229.79 304.609V304.599Z" fill="#401F71"/>
<path d="M251.49 46.5098L456.23 389.17H46.7504L251.49 46.5098ZM251.49 0.5C235.3 0.5 220.3 9.01016 212 22.9102L7.26041 365.57C-1.22959 379.78 -1.42958 397.47 6.74042 411.87C14.9104 426.27 30.1904 435.17 46.7504 435.17H456.23C472.79 435.17 488.07 426.27 496.24 411.87C504.41 397.47 504.21 379.79 495.72 365.57L290.98 22.9102C282.68 9.01016 267.68 0.5 251.49 0.5Z" fill="#401F71"/>
</svg>
