<svg width="879" height="629" viewBox="0 0 879 629" fill="none" xmlns="http://www.w3.org/2000/svg">
<path d="M199.1 364.772C207.59 363.652 211.89 356.692 217.78 352.012C219.43 350.702 221.39 349.712 223.31 348.812C226.01 347.542 229.04 346.862 231.51 345.282C238.32 340.932 244.99 336.332 251.58 331.652C255.59 328.812 255.37 325.912 251.05 323.262C240.86 317.022 230.37 311.572 218.66 308.422C214.73 307.362 211.46 303.752 207.96 301.212C204.13 298.442 199.96 295.952 196.76 292.562C194.96 290.662 193.85 287.092 194.15 284.462C194.76 279.002 196.49 273.652 197.8 268.272C198.43 265.672 198.89 262.992 199.88 260.522C201.21 257.212 203.12 254.132 204.5 250.832C205.41 248.642 206.59 246.132 206.3 243.942C205.45 237.632 208.6 233.232 212.4 229.052C215.14 226.042 218.35 223.432 220.89 220.272C221.77 219.182 222.03 216.142 221.23 215.382C211.66 206.112 201.79 197.162 192.12 187.992C185.96 182.152 180.1 175.992 173.97 170.132C167.9 164.322 161.6 158.742 155.5 152.962C152.46 150.082 149.93 146.592 146.65 144.062C142.57 140.912 137.92 138.502 133.57 135.692C129.99 133.372 126.56 130.812 122.92 128.582C121.05 127.432 118.97 126.342 116.85 125.962C112.34 125.152 109.82 122.592 109.35 118.232C109.06 115.532 107.9 114.342 105.35 113.592C100.74 112.232 96.7201 109.912 95.1601 104.872C95.1201 104.732 95.0801 104.532 94.9701 104.462C88.8501 100.672 92.3301 95.9117 93.5301 91.2917C94.0501 89.2817 94.1101 87.1117 94.1301 85.0217C94.2301 76.5817 98.5801 70.3217 103.64 63.9617C106.62 60.2117 107.66 54.9017 109.47 50.2617C110.23 48.3217 110.21 45.8017 111.48 44.3917C115.08 40.3917 118.96 36.5717 123.17 33.2317C124.81 31.9317 127.62 31.7817 129.91 31.7317C133.44 31.6517 137.02 31.8317 140.51 32.3817C146.52 33.3417 151.32 36.4317 155.35 41.0917C158.13 44.3017 160.23 43.6417 161.85 39.5317C163.44 35.4917 165.08 31.4417 166.2 27.2617C167.63 21.9417 169.69 18.4417 176.11 17.5917C183.56 16.6017 190.37 16.8217 196.75 20.8717C201.31 23.7617 205.45 27.4317 210.24 29.8117C220.49 34.9017 229.2 41.6217 236.52 50.4617C239.5 54.0617 243.85 56.5117 247.4 59.6817C252.05 63.8517 256.41 68.3417 261.11 72.4617C265.29 76.1217 270.01 79.1917 273.99 83.0417C276.51 85.4717 278.33 88.7216 280.06 91.8316C282.81 96.7816 285.57 101.782 287.62 107.032C288.82 110.092 288.56 113.702 289.11 117.042C289.55 119.742 289.65 122.712 290.91 125.012C293.05 128.942 295.57 132.842 298.67 136.032C302.88 140.372 307.83 143.992 312.37 148.032C315.16 150.512 317.77 153.182 320.43 155.802C320.96 156.322 321.23 157.272 321.83 157.532C329.05 160.722 333.58 166.672 337.87 172.892C338.04 173.132 338.26 173.382 338.52 173.522C348.94 179.352 354.47 190.232 363.42 197.562C365.47 199.242 368.08 200.212 370.2 201.822C373.01 203.952 375.61 206.362 378.27 208.702C380.58 210.732 382.53 213.562 385.21 214.702C388.3 216.022 390.32 217.712 392.35 220.362C394.75 223.502 398.16 225.982 401.47 228.252C402.68 229.082 405.34 229.232 406.51 228.452C412.2 224.672 417.52 220.352 423.14 216.462C427.44 213.492 432.01 210.932 436.42 208.112C442.67 204.122 448.91 200.112 455.07 195.992C456.79 194.842 458.03 192.922 459.8 191.912C463.63 189.722 467.83 188.162 471.57 185.852C475.61 183.352 479.35 180.332 483.14 177.442C487.87 173.832 492.4 169.942 497.27 166.532C501.05 163.882 505.27 161.862 509.2 159.422C511.96 157.712 514.61 155.822 517.22 153.882C524.91 148.152 532.58 142.412 540.18 136.562C542.89 134.472 545.19 131.832 547.98 129.872C551.87 127.142 556.1 124.902 560.09 122.302C565.85 118.562 571.61 114.802 577.22 110.852C586.18 104.542 595.12 98.2017 603.87 91.6117C610.17 86.8617 616.13 81.6417 622.29 76.6917C624.03 75.2917 625.94 74.0917 627.77 72.7917C636.37 66.6617 644.34 59.8617 650.19 50.9417C652.36 47.6217 653.94 44.6017 653.97 39.8217C654 33.9517 658.29 28.2317 664.47 25.2517C672.36 21.4517 680.59 19.4717 689.32 21.1517C693.3 21.9117 697.16 23.2217 699.23 27.3417C699.62 28.1217 700.78 28.5717 701.66 29.0417C703.22 29.8717 705.1 30.2917 706.39 31.4117C709.62 34.2317 712.72 37.2117 715.62 40.3617C721.91 47.1617 728.04 54.1017 734.24 60.9817C735.92 62.8417 737.64 63.1117 739.75 61.4317C748.6 54.3617 757.67 47.5517 766.36 40.2917C771.02 36.4017 775.07 31.7917 779.4 27.5017C780.04 26.8617 780.54 25.9417 781.31 25.6017C788.97 22.1717 795.18 16.1717 803.77 14.1417C807.53 13.2517 810.79 9.20166 813.7 6.04166C816.54 2.96166 819.78 2.0117 823.7 0.901703C831.43 -1.2883 836.03 3.01171 841.98 6.28171C854.28 13.0317 862.81 23.4417 869.94 34.5817C873.91 40.7917 879.67 47.9217 876.99 56.9217C876.73 57.8017 877.07 59.0417 877.52 59.9117C880.06 64.8017 879.05 69.2617 876.35 73.7417C874.67 76.5317 873.49 79.6317 871.9 82.4817C870.97 84.1417 870.01 86.2617 868.48 87.0217C860.5 91.0117 855.37 97.5217 850.52 104.752C847.51 109.242 842.77 112.552 838.95 116.522C837.12 118.432 835.6 120.642 833.96 122.732C833.23 123.652 832.73 124.862 831.82 125.512C827.54 128.572 823.1 131.402 818.84 134.492C815.83 136.672 813 139.102 810.12 141.462C805.24 145.462 800.35 149.462 795.53 153.532C793.81 154.982 792.39 156.792 790.65 158.192C786.81 161.282 782.84 164.222 778.92 167.222C777.97 167.952 776.77 168.472 776.06 169.382C771.34 175.442 764.64 178.772 758.42 182.882C750.97 187.812 744.24 193.822 736.99 199.082C734.99 200.532 732.26 200.982 729.88 201.912C728.59 202.412 726.69 202.612 726.14 203.572C722.06 210.652 715.86 215.082 708.76 218.692C705.48 220.352 701.3 221.382 701.87 226.942C701.98 227.972 697.76 229.592 695.41 230.652C694.42 231.102 692.78 230.392 691.97 230.962C684.29 236.392 676.73 241.992 669.12 247.522C668.18 248.202 667.15 248.782 666.12 249.312C665.19 249.792 663.57 249.942 663.34 250.602C661.36 256.392 654.75 257.102 651.66 261.562C650.68 262.982 650.07 264.652 649.23 266.172C648.45 267.572 647.87 269.292 646.7 270.242C636.74 278.362 626.49 286.142 616.66 294.412C607.81 301.862 599.41 309.842 590.74 317.512C589.33 318.762 587.59 319.652 585.96 320.652C585.2 321.122 584.07 321.222 583.57 321.852C577.55 329.532 567.94 332.132 560.72 338.032C554.26 343.312 551.2 348.042 559.69 354.132C565.2 358.082 571.05 361.562 576.5 365.582C584.75 371.672 592.74 378.112 600.94 384.282C603.93 386.532 607.24 388.342 610.31 390.502C622.41 399.022 634.98 406.732 648.01 413.772C650.83 415.302 652.59 418.712 655.02 421.082C656.36 422.382 657.94 423.592 659.64 424.352C666.44 427.432 670.56 432.492 672.01 439.832C673.18 445.752 675.25 451.602 675.59 457.562C675.97 464.252 675.26 470.942 671.28 477.062C668.05 482.022 665.94 487.722 663.41 493.132C663.12 493.752 662.96 494.942 663.3 495.262C666.44 498.202 669.27 502.102 673.04 503.582C678.73 505.822 683.79 508.432 688.4 512.502C693.34 516.862 698.91 520.542 704.3 524.372C709.55 528.102 714.89 531.722 720.28 535.252C725.77 538.852 731.37 542.292 736.91 545.792C737.93 546.432 738.96 547.062 739.96 547.732C747.05 552.502 754.19 557.202 761.19 562.102C762.8 563.222 763.97 565.002 765.26 566.542C766.98 568.602 768.39 570.982 770.35 572.762C776.89 578.682 778.73 586.512 779.79 594.722C780.16 597.562 780.88 600.412 780.8 603.232C780.72 606.092 780.73 609.662 779.12 611.632C775.51 616.062 771.18 620.032 766.63 623.522C763.75 625.732 759.97 626.782 756.53 628.212C755.79 628.522 754.51 628.532 753.94 628.092C745.38 621.452 734.66 620.412 724.99 616.692C719.16 614.452 713.68 611.222 708.26 608.052C700.9 603.742 693.66 599.212 686.58 594.472C683.36 592.312 680.81 589.172 677.65 586.902C668.28 580.172 658.75 573.652 649.28 567.052C645.59 564.482 641.75 562.102 638.22 559.332C636.26 557.792 634.77 555.642 633.08 553.752C631.68 552.192 630.48 550.382 628.88 549.072C623.69 544.822 618.35 540.752 613.08 536.602C612.49 536.132 611.78 535.682 611.45 535.052C606.26 525.282 595.43 522.282 587.74 515.502C584.85 512.952 580.33 512.292 576.65 510.572C575.71 510.132 574.85 509.042 574.42 508.042C572.31 503.182 569.59 499.072 564.12 497.432C562.75 497.022 561.58 495.872 560.39 494.962C554.7 490.632 549.08 486.222 543.33 481.982C542.55 481.402 540.8 481.212 540.12 481.702C539.48 482.162 539.16 484.002 539.55 484.822C541.49 488.822 539.18 491.492 536.81 493.992C535.17 495.722 532.96 496.902 531.2 498.542C530.16 499.512 528.68 501.012 528.82 502.092C529.66 508.852 524.01 509.762 520.04 511.852C518.75 512.532 516.39 511.442 514.61 510.872C508.95 509.082 503.41 506.792 497.65 505.422C494.6 504.692 491.16 505.732 487.95 505.422C486.17 505.252 484.34 504.172 482.8 503.102C475.14 497.812 467.69 492.202 459.9 487.102C456 484.552 452.45 480.732 446.97 481.542C446.4 481.622 445.33 481.002 445.14 480.462C442.91 474.412 437 472.242 432.68 468.392C427.55 463.822 422.59 459.072 417.61 454.332C413.18 450.102 410.34 449.392 405.88 453.502C397.25 461.442 386.9 466.612 377.15 472.762C372.59 475.632 367.15 477.832 363.86 481.802C358.97 487.692 351.96 490.292 346.57 495.232C344.41 497.212 341.71 498.682 339.07 500.032C335.2 502.002 331.96 504.312 328.86 507.652C325.14 511.652 319.52 513.952 314.57 516.712C309.26 519.672 303.57 522.012 298.4 525.192C293.71 528.082 289.61 531.912 285.04 535.012C273.94 542.542 262.82 550.042 251.52 557.262C243.88 562.142 235.88 566.452 228.13 571.162C225.7 572.632 223.67 574.752 221.26 576.262C218.92 577.722 216.26 578.652 213.86 580.032C209.87 582.322 205.83 584.552 202.1 587.222C197.01 590.862 192.17 594.852 187.26 598.752C182.19 602.782 177.27 607.002 172.12 610.912C162.23 618.402 151.37 623.852 138.95 625.642C137.08 625.912 134.64 626.102 133.26 625.172C129.51 622.622 125.97 622.982 122.09 624.452C120.89 624.902 119.09 625.232 118.15 624.662C113.52 621.852 107.97 620.612 104.66 615.472C102.28 611.762 98.6801 608.822 95.5801 605.582C89.3801 599.102 83.2701 592.832 81.2501 583.332C80.3201 578.942 76.5001 575.112 73.7501 571.202C73.3001 570.552 71.5801 570.452 70.5401 570.622C67.5201 571.122 64.5701 572.072 61.5401 572.522C58.1201 573.032 54.6001 572.932 51.2101 573.562C46.4801 574.442 43.3001 571.732 39.6501 569.602C36.9401 568.022 33.5901 567.572 30.6601 566.312C25.2901 564.002 19.3701 563.672 15.2801 557.682C11.9701 552.832 10.7901 547.742 8.92013 542.642C6.72013 536.652 3.91013 530.812 2.43013 524.642C1.17013 519.402 1.42013 513.802 1.02013 508.352C0.910131 506.892 1.19013 505.292 0.700131 503.972C-0.879869 499.662 0.480131 496.482 2.99013 492.742C8.84013 484.022 17.0401 478.692 25.9601 473.792C34.7101 468.982 43.5201 463.992 51.3401 457.852C57.6401 452.912 64.2601 449.372 71.7601 447.112C72.0401 447.022 72.4201 446.922 72.5501 446.702C78.4101 436.672 90.6301 438.242 98.7601 432.352C101.61 430.292 104.62 428.462 107.51 426.462C112.57 422.972 117.56 419.382 122.66 415.952C128.1 412.292 133.69 408.842 139.12 405.152C143.95 401.872 148.67 398.422 153.4 394.982C155.64 393.342 159.2 391.802 159.55 389.762C159.92 387.662 157.12 385.002 155.71 382.582C154.5 380.512 153.11 378.522 152.15 376.342C151.16 374.072 149.25 370.882 150.07 369.362C153.42 363.232 151.81 354.512 159.76 350.722C162.15 349.582 164.09 347.522 166.25 345.892C172.28 341.332 178.96 343.012 185.37 344.402C187.33 344.832 189.22 347.252 190.42 349.212C193.48 354.162 196.13 359.372 199.12 364.802L199.1 364.772ZM130.35 521.162C134 520.522 136.99 520.582 139.46 519.462C151.09 514.202 162.57 508.632 174.1 503.162C177.21 501.692 180.41 500.362 183.4 498.682C188.59 495.762 193.62 492.562 198.78 489.592C208.79 483.852 219.18 478.702 228.79 472.352C237.79 466.412 247.85 462.162 256 454.852C262.83 448.722 270.1 443.102 277.06 437.122C294.17 422.422 311.2 407.632 328.29 392.902C331.85 389.832 332.14 387.732 329.27 384.632C326.52 381.652 324.31 382.812 322.14 385.392C321.47 386.182 320.6 386.852 319.71 387.402C310.13 393.372 300.56 399.372 290.91 405.232C285.54 408.492 281.58 414.302 274.38 414.342C273.49 414.342 272.55 415.332 271.72 415.972C261.58 423.732 251.43 431.502 241.33 439.312C239.58 440.672 238.18 442.542 236.32 443.692C230.87 447.052 225.19 450.032 219.76 453.432C215.19 456.292 211.23 460.882 206.31 462.312C196.04 465.282 188.78 472.422 180.63 478.342C176.79 481.132 173.7 484.922 170.01 487.942C166.56 490.762 162.67 493.032 159.15 495.782C152.88 500.672 146.56 505.542 140.61 510.812C137.29 513.742 131.84 514.502 130.32 521.162H130.35ZM222 140.502C223.77 142.692 225.17 144.762 226.91 146.492C228.54 148.112 230.88 149.782 232.47 146.932C233 145.982 231.54 143.082 230.22 142.102C227.68 140.202 224.95 138.802 224.31 135.242C224.16 134.402 222.89 133.782 222.18 133.012C219.47 130.082 216.51 127.332 214.17 124.132C212.04 121.212 210.46 118.072 206.59 116.862C205.46 116.512 204.81 114.622 203.92 113.452C202.26 111.252 200.82 108.822 198.86 106.932C196.15 104.312 192.25 102.612 190.26 99.6017C185.59 92.5617 179.6 87.1017 172.71 82.4817C172.11 82.0817 170.87 82.6417 169.92 82.7517C170.11 83.5617 170.06 84.5717 170.54 85.1417C174.66 90.0617 179.03 94.7817 183.03 99.7917C187.31 105.152 191.25 110.792 195.42 116.242C196.13 117.162 197.17 118.342 198.16 118.452C204.11 119.142 207.04 123.502 210.29 127.682C212.91 131.062 215.94 134.122 218.13 136.602C217.2 139.032 216.57 140.652 215.95 142.272C218.05 141.662 220.16 141.052 221.99 140.522L222 140.502ZM265.09 175.702C264.5 176.182 263.9 176.672 263.31 177.152C264.37 178.982 265.07 181.182 266.54 182.572C274.37 189.972 282.38 197.182 290.37 204.422C291.25 205.222 292.3 206.022 293.4 206.322C294.23 206.552 295.28 205.992 296.23 205.792C296.05 204.962 296.13 203.902 295.64 203.352C291.56 198.762 287.39 194.262 283.21 189.762C282.82 189.342 282.2 188.992 281.64 188.912C276.08 188.162 273.91 183.182 270.33 179.962C268.66 178.462 266.85 177.122 265.1 175.702H265.09ZM323.71 230.312C322.95 235.412 344.39 254.512 350.56 254.502C341.61 246.442 332.66 238.372 323.71 230.312ZM251.5 166.192C251.88 165.832 252.27 165.472 252.65 165.112C250.63 161.202 247.49 158.072 244.31 154.982C244.02 154.692 243.43 154.452 243.07 154.542C241.86 154.822 240.68 155.262 239.49 155.652C240.05 156.732 240.37 158.102 241.23 158.832C243.62 160.852 246.22 162.632 248.77 164.472C249.64 165.102 250.59 165.632 251.5 166.212V166.192ZM696 528.082C693.6 523.592 686.28 522.402 684.09 525.282C683.71 525.782 684.41 527.952 684.68 527.962C688.26 528.152 691.86 528.082 695.99 528.082H696ZM306.58 217.772C307.38 217.082 308.56 216.182 308.5 216.092C307.26 214.192 306.1 212.152 304.45 210.662C303.58 209.872 301.82 210.012 300.45 209.932C300.34 209.932 299.72 211.872 300.04 212.182C302.04 214.102 304.24 215.822 306.58 217.782V217.772Z" fill="#F65A3D"/>
</svg>
